<?xml version="1.0" encoding="UTF-8"?>
<svg xmlns="http://www.w3.org/2000/svg" width="366" height="79" viewBox="0 0 366 79" fill="none">
  <g clip-path="url(#clip0_5524_1348)">
    <path d="M257.332 5.85404C257.042 5.82535 256.78 5.76795 256.49 5.73926L250.099 15.2663C251.203 15.6681 252.249 16.1846 253.178 16.8446L257.332 5.88274V5.85404ZM236.272 18.7385C236.795 18.1359 237.405 17.5907 238.044 17.1029L237.173 16.4142C236.824 17.1603 236.534 17.935 236.272 18.7385ZM237.87 15.0654L238.509 16.7585C239.439 16.0985 240.484 15.582 241.588 15.2089L239.729 12.4254C239.032 13.2576 238.422 14.1472 237.87 15.0941V15.0654ZM243.941 8.69494C243.244 9.15408 242.576 9.67061 241.937 10.2158L242.14 15.0081C243.215 14.6924 244.377 14.5202 245.568 14.4915L243.941 8.69494ZM258.581 26.9743L273.453 22.8994L258.087 23.5595C258.407 24.6499 258.581 25.7977 258.61 26.9743H258.581ZM257.913 23.0716L270.723 14.6924L256.344 20.0012C256.983 20.9481 257.506 21.9812 257.884 23.1003L257.913 23.0716ZM256.054 19.5707L264.855 8.63755C264.855 8.63755 264.681 8.55146 264.594 8.49407L253.614 17.1316C254.543 17.849 255.357 18.6524 256.054 19.5994V19.5707ZM249.954 39.0266L252.597 42.9579C253.207 43.0153 253.817 43.044 254.456 43.044C254.718 43.044 254.95 43.0153 255.212 43.0153L253.12 37.4483C252.162 38.1083 251.116 38.6248 249.983 39.0266H249.954ZM245.335 40.777L245.626 39.7153C244.812 39.7153 243.999 39.6292 243.244 39.457C243.912 39.9449 244.58 40.3753 245.335 40.777ZM253.469 37.19L259.917 42.2692C260.469 42.097 261.021 41.9249 261.544 41.6953L255.938 34.7509C255.212 35.6692 254.369 36.5013 253.44 37.19H253.469ZM256.228 34.3778L267.034 38.3666C267.266 38.1657 267.499 37.9648 267.731 37.764L257.855 31.3074C257.448 32.4265 256.896 33.4596 256.228 34.3778ZM258 30.8482L272.088 31.4508C272.088 31.4508 272.146 31.25 272.204 31.1639L258.581 27.4334C258.552 28.6099 258.349 29.7578 258.029 30.8482H258ZM246.12 14.4628C247.311 14.4915 248.443 14.6637 249.547 15.0081L249.925 6.11231C249.402 6.22709 248.85 6.39927 248.327 6.54274L246.12 14.4341V14.4628ZM246.062 39.6866L246.526 41.3223C247.543 41.7814 248.589 42.1257 249.692 42.4127L249.547 39.1414C248.443 39.4857 247.282 39.6579 246.062 39.6866Z" fill="url(#paint0_linear_5524_1348)"></path>
    <path d="M235.721 34.8371L230.986 40.7197C231.742 40.8919 232.555 41.0067 233.368 41.0067C233.397 41.0067 233.426 41.0067 233.485 41.0067L238.219 37.2762C237.29 36.5875 236.418 35.7553 235.721 34.8371ZM233.804 31.3935L225.264 36.9606C225.496 37.2762 225.787 37.5919 226.048 37.9075L235.402 34.464C234.734 33.517 234.182 32.5127 233.775 31.3935H233.804ZM233.049 27.5196L223.289 30.1883C223.289 30.4753 223.26 30.7335 223.26 31.0205C223.26 31.1353 223.26 31.2501 223.26 31.3648L233.601 30.9344C233.252 29.844 233.078 28.7248 233.02 27.5483L233.049 27.5196ZM234.588 21.1491C234.182 21.0917 233.775 21.063 233.339 21.063C232.555 21.063 231.771 21.1778 231.015 21.3213L233.688 23.0717C233.92 22.383 234.211 21.7517 234.559 21.1204L234.588 21.1491ZM233.543 23.6169L226.949 23.33C226.368 23.7891 225.845 24.3343 225.38 24.9082L233.02 27.0031C233.02 25.8265 233.223 24.6787 233.543 23.5882V23.6169ZM238.568 37.5632L237.609 40.0884C238.51 39.658 239.352 39.1128 240.078 38.4527C239.555 38.1945 239.033 37.9075 238.568 37.5632Z" fill="url(#paint1_linear_5524_1348)"></path>
    <path d="M233.717 23.0717L231.045 21.3213C229.534 21.6656 228.14 22.3543 226.949 23.3013L233.543 23.5883C233.601 23.4161 233.659 23.2439 233.717 23.0717ZM233.601 30.9057L223.26 31.3362C223.318 33.431 224.044 35.3823 225.235 36.9319L233.775 31.3649C233.717 31.1927 233.659 31.0492 233.601 30.877V30.9057ZM233.049 27.5196C233.049 27.5196 233.049 27.2614 233.049 27.1179C233.049 27.0605 233.049 27.0318 233.049 26.9744L225.409 24.8796C224.247 26.3718 223.492 28.1796 223.318 30.1596L233.078 27.4909L233.049 27.5196ZM240.049 38.3954C240.049 38.3954 240.078 38.3954 240.107 38.3954C240.107 38.3954 240.078 38.3954 240.049 38.3954ZM233.455 40.978C234.937 40.978 236.36 40.6337 237.638 40.0311L238.597 37.5058C238.597 37.5058 238.335 37.3336 238.219 37.2189L233.485 40.9493L233.455 40.978ZM235.692 34.8371C235.692 34.8371 235.489 34.5788 235.402 34.464L226.048 37.9076C227.355 39.2563 229.069 40.2606 230.957 40.7198L235.692 34.8371Z" fill="url(#paint2_linear_5524_1348)"></path>
    <path d="M258.553 2.66895L256.49 5.73941C256.781 5.76811 257.042 5.8255 257.333 5.8542L258.553 2.66895Z" fill="url(#paint3_linear_5524_1348)"></path>
    <path d="M237.174 16.4429L226.106 7.74805L235.634 19.5995C235.837 19.3412 236.041 19.083 236.273 18.8247C236.535 18.0212 236.825 17.2177 237.174 16.4429Z" fill="url(#paint4_linear_5524_1348)"></path>
    <path d="M220.965 14.7212L231.044 21.3213C231.8 21.1491 232.555 21.0343 233.368 21.0343C233.804 21.0343 234.182 21.1204 234.617 21.1778C234.85 20.776 235.024 20.3743 235.285 20.0012L220.965 14.7212Z" fill="url(#paint5_linear_5524_1348)"></path>
    <path d="M254.457 43.1012C253.847 43.1012 253.208 43.0725 252.598 43.0151L258.523 51.8535L255.183 43.0438C254.921 43.0438 254.689 43.0725 254.428 43.0725L254.457 43.1012Z" fill="url(#paint6_linear_5524_1348)"></path>
    <path d="M241.502 54.5223L245.365 40.8343C244.639 40.4325 243.942 40.0021 243.274 39.5143C242.896 39.4282 242.548 39.2847 242.17 39.1699L241.502 54.5223Z" fill="url(#paint7_linear_5524_1348)"></path>
    <path d="M272.205 31.25C272.205 31.25 272.147 31.4509 272.089 31.537L273.454 31.5944L272.205 31.25Z" fill="url(#paint8_linear_5524_1348)"></path>
    <path d="M246.526 41.4082L250.215 54.551L249.693 42.5273C248.589 42.2404 247.543 41.896 246.526 41.4369V41.4082Z" fill="url(#paint9_linear_5524_1348)"></path>
    <path d="M267.034 38.4239L270.752 39.8013L267.731 37.8213C267.499 38.0222 267.267 38.223 267.034 38.4239Z" fill="url(#paint10_linear_5524_1348)"></path>
    <path d="M264.855 8.66632L265.611 7.74805L264.623 8.52284C264.623 8.52284 264.797 8.60893 264.884 8.66632H264.855Z" fill="url(#paint11_linear_5524_1348)"></path>
    <path d="M259.918 42.298L265.611 46.7746L261.545 41.7241C261.022 41.925 260.47 42.1259 259.918 42.298Z" fill="url(#paint12_linear_5524_1348)"></path>
    <path d="M237.638 40.0598L233.165 51.8538L241.763 39.0554C241.182 38.8545 240.63 38.6537 240.107 38.3667C239.352 39.0267 238.568 39.6293 237.638 40.0598Z" fill="url(#paint13_linear_5524_1348)"></path>
    <path d="M233.368 41.0067C232.555 41.0067 231.742 40.8919 230.986 40.7197L226.106 46.8033L233.485 41.0067C233.485 41.0067 233.426 41.0067 233.368 41.0067Z" fill="url(#paint14_linear_5524_1348)"></path>
    <path d="M243.942 8.75227L241.473 0L241.908 10.2445C242.547 9.69924 243.216 9.21141 243.913 8.75227H243.942Z" fill="url(#paint15_linear_5524_1348)"></path>
    <path d="M250.215 0L248.356 6.62877C248.879 6.45659 249.402 6.31311 249.954 6.16963L250.215 0Z" fill="url(#paint16_linear_5524_1348)"></path>
    <path d="M223.26 31.0202C223.26 30.7332 223.26 30.4749 223.289 30.188L218.234 31.5654L223.26 31.3358C223.26 31.3358 223.26 31.1063 223.26 30.9915V31.0202Z" fill="url(#paint17_linear_5524_1348)"></path>
    <path d="M239.73 12.4543L233.165 2.66895L237.871 15.0943C238.423 14.1473 239.033 13.2578 239.73 12.4543Z" fill="url(#paint18_linear_5524_1348)"></path>
    <path d="M226.978 23.3296L218.264 22.9565L225.409 24.9079C225.874 24.334 226.397 23.7887 226.978 23.3296Z" fill="url(#paint19_linear_5524_1348)"></path>
    <path d="M220.965 39.8013L226.077 37.9074C225.787 37.6205 225.525 37.3048 225.293 36.9604L220.994 39.7727L220.965 39.8013Z" fill="url(#paint20_linear_5524_1348)"></path>
    <path d="M270.753 14.7214L257.884 23.1293C257.943 23.2728 257.972 23.4449 258.03 23.5884L273.454 22.9284L258.582 27.0032C258.582 27.0032 258.582 27.0893 258.582 27.118C258.582 27.2328 258.553 27.3476 258.553 27.4911L272.205 31.2215C273.076 29.098 273.541 26.7737 273.541 24.3632C273.541 17.7918 270.084 12.0239 264.856 8.6665L256.025 19.6284C256.025 19.6284 256.258 19.8866 256.374 20.0301L270.753 14.7214Z" fill="#FFFF3B"></path>
    <path d="M255.213 43.0728C256.839 43.0155 258.408 42.7572 259.918 42.3267L253.441 37.2476C253.441 37.2476 253.237 37.4484 253.121 37.5058L255.213 43.0728Z" fill="#FFFF3B"></path>
    <path d="M245.656 39.7441L245.365 40.8346C245.743 41.0355 246.15 41.2363 246.556 41.4085L246.091 39.7441C246.091 39.7441 245.917 39.7441 245.83 39.7441C245.772 39.7441 245.714 39.7441 245.656 39.7441Z" fill="#FFFF3B"></path>
    <path d="M237.871 15.0942C237.61 15.5247 237.377 15.9838 237.174 16.4429L238.074 17.1603C238.074 17.1603 238.365 16.9595 238.51 16.8447L237.842 15.0942H237.871Z" fill="#FFFF3B"></path>
    <path d="M249.693 42.4987C250.652 42.7283 251.61 42.9291 252.598 43.0152L249.925 39.0552C249.925 39.0552 249.664 39.1413 249.548 39.17L249.693 42.4987Z" fill="#FFFF3B"></path>
    <path d="M246.149 14.549L248.386 6.62891C246.817 7.14543 245.336 7.86283 243.971 8.75241L245.597 14.549C245.597 14.549 245.772 14.549 245.859 14.549C245.975 14.549 246.062 14.5777 246.178 14.5777L246.149 14.549Z" fill="#FFFF3B"></path>
    <path d="M261.574 41.7525C263.607 40.949 265.437 39.8299 267.064 38.4238L256.229 34.4351C256.229 34.4351 256.055 34.6646 255.938 34.7794L261.545 41.7525H261.574Z" fill="#FFFF3B"></path>
    <path d="M267.732 37.8216C269.591 36.0425 271.102 33.919 272.089 31.5372L257.943 30.9346C257.943 30.9346 257.856 31.2215 257.798 31.365L267.703 37.8503L267.732 37.8216Z" fill="#FFFF3B"></path>
    <path d="M241.938 10.2446C241.154 10.9333 240.399 11.6507 239.73 12.4542L241.648 15.2951C241.822 15.2377 241.996 15.1803 242.17 15.1229L241.967 10.2446H241.938Z" fill="#FFFF3B"></path>
    <path d="M264.623 8.52273C262.445 7.17402 259.976 6.25575 257.332 5.854L253.179 16.8446C253.324 16.9593 253.44 17.0741 253.585 17.1889L264.594 8.52273H264.623Z" fill="#FFFF3B"></path>
    <path d="M256.49 5.7393C255.822 5.6819 255.154 5.62451 254.457 5.62451C252.917 5.62451 251.407 5.82538 249.955 6.16974L249.548 15.1229C249.722 15.1803 249.896 15.209 250.071 15.2951L256.461 5.7393H256.49Z" fill="#FFFF3B"></path>
    <path d="M8.39476 67.8661C12.81 68.8131 14.8143 70.3914 14.8143 73.4044C14.8143 76.7906 11.9967 78.9428 8.07524 78.9428C4.93809 78.9428 2.3819 77.9097 0 75.8149L1.39429 74.2079C3.45667 76.0445 5.4319 76.9627 8.16238 76.9627C10.8929 76.9627 12.5486 75.5853 12.5486 73.6053C12.5486 71.7688 11.561 70.7357 7.40714 69.8748C2.87571 68.8992 0.784286 67.4644 0.784286 64.2217C0.784286 60.9791 3.51476 58.8843 7.2619 58.8843C10.1376 58.8843 12.2 59.6878 14.2043 61.266L12.8971 62.9591C11.0671 61.4956 9.23714 60.8356 7.20381 60.8356C4.64762 60.8356 2.9919 62.2417 2.9919 64.0209C2.9919 65.8 4.00857 66.9191 8.36571 67.8374L8.39476 67.8661Z" fill="#003260"></path>
    <path d="M45.1106 70.3629C45.1106 76.0447 41.7992 79.0004 36.8611 79.0004C31.923 79.0004 28.6406 76.0447 28.6406 70.5351V59.2002H30.8773V70.3916C30.8773 74.6099 33.143 76.963 36.9192 76.963C40.6954 76.963 42.874 74.7821 42.874 70.5351V59.2002H45.1106V70.3629Z" fill="#003260"></path>
    <path d="M67.0705 67.8661C71.4567 68.8131 73.4901 70.3914 73.4901 73.4044C73.4901 76.7906 70.6724 78.9428 66.751 78.9428C63.6139 78.9428 61.0577 77.9097 58.6758 75.8149L60.0701 74.2079C62.1324 76.0445 64.1077 76.9627 66.8382 76.9627C69.5686 76.9627 71.2534 75.5853 71.2534 73.6053C71.2534 71.7688 70.2658 70.7357 66.112 69.8748C61.5805 68.8992 59.4891 67.4644 59.4891 64.2217C59.4891 60.9791 62.2196 58.8843 65.9667 58.8843C68.8424 58.8843 70.9048 59.6878 72.9091 61.266L71.602 62.9591C69.772 61.4956 67.942 60.8356 65.9086 60.8356C63.3524 60.8356 61.6967 62.2417 61.6967 64.0209C61.6967 65.8 62.7134 66.9191 67.0415 67.8374L67.0705 67.8661Z" fill="#003260"></path>
    <path d="M94.6952 78.6846H92.4295V61.2088H85.8066V59.1714H101.318V61.2088H94.6952V78.6846Z" fill="#003260"></path>
    <path d="M130.946 78.6846H128.535L126.212 73.5193H115.464L113.111 78.6846H110.816L119.821 59.0278H121.913L130.917 78.6846H130.946ZM120.867 61.6105L116.365 71.568H125.369L120.896 61.6105H120.867Z" fill="#003260"></path>
    <path d="M146.894 59.1714V78.6846H144.657V59.1714H146.894Z" fill="#003260"></path>
    <path d="M176.784 59.1714H178.962V78.6846H177.19L164.438 62.701V78.6846H162.26V59.1714H164.351L176.784 74.8107V59.1714Z" fill="#003260"></path>
    <path d="M212.542 78.6846H210.16L207.836 73.5193H197.088L194.764 78.6846H192.47L201.474 59.0278H203.566L212.571 78.6846H212.542ZM202.462 61.6105L197.96 71.568H206.964L202.462 61.6105Z" fill="#003260"></path>
    <path d="M240.892 64.0496C240.892 66.6035 239.324 67.9235 237.755 68.5835C240.108 69.2723 241.996 70.621 241.996 73.3184C241.996 76.6758 239.149 78.6558 234.821 78.6558H226.049V59.1426H234.444C238.336 59.1426 240.892 61.0365 240.892 64.0209V64.0496ZM238.626 64.3652C238.626 62.4139 237.087 61.1513 234.24 61.1513H228.227V67.8661H234.066C236.738 67.8661 238.597 66.6609 238.597 64.3652H238.626ZM239.73 73.2036C239.73 71.0514 237.929 69.8462 234.473 69.8462H228.227V76.7332H234.85C237.842 76.7332 239.701 75.4132 239.701 73.2323L239.73 73.2036Z" fill="#003260"></path>
    <path d="M258.466 59.1714V78.6846H256.229V59.1714H258.466Z" fill="#003260"></path>
    <path d="M273.832 59.1714H276.069V76.6472H287.194V78.6846H273.861V59.1714H273.832Z" fill="#003260"></path>
    <path d="M303.315 59.1714V78.6846H301.078V59.1714H303.315Z" fill="#003260"></path>
    <path d="M326.176 78.6846H323.91V61.2088H317.287V59.1714H332.799V61.2088H326.176V78.6846Z" fill="#003260"></path>
    <path d="M355.02 78.6846H352.755V70.9654L344.534 59.1714H347.236L353.888 68.928L360.598 59.1714H363.183L354.962 70.9367V78.6846H355.02Z" fill="#003260"></path>
    <path d="M24.0805 27.5771C23.5286 27.204 22.9476 26.9171 22.3957 26.6301C22.3957 26.6301 22.3667 26.6301 22.3376 26.6301C22.57 26.4579 22.7733 26.257 23.0057 26.0849C25.2133 24.0762 26.201 21.2353 25.6781 18.5091C25.1552 15.783 23.2671 13.6021 20.4786 12.5404C18.9681 11.9665 17.3414 11.6221 15.7148 11.5934C14.1171 11.536 12.2 11.5073 9.64381 11.5073C8.19143 11.5073 6.76809 11.5073 5.37381 11.5073H3.02095C1.04571 11.5073 0 12.5404 0 14.5778C0 23.3301 0 32.0823 0 40.8346C0 42.9007 1.01667 43.9338 3.13714 43.9338H5.98381C7.55238 43.9338 9.20809 43.9625 10.8348 43.9625C13.449 43.9625 15.4533 43.9625 17.1381 43.8764C18.7938 43.819 20.5367 43.4459 22.0181 42.8433C25.3876 41.4659 27.3919 38.8833 27.7695 35.3537C28.1181 32.1684 26.84 29.471 24.0805 27.5484V27.5771ZM17.3414 24.5927C16.9348 24.7649 16.5281 24.937 16.1795 24.937C14.5238 24.937 12.5776 24.937 10.6024 24.937H5.54809V16.1848H6.33238H7.00048C7.8719 16.1848 8.85952 16.1848 9.87619 16.2135C12.2 16.2135 14.8433 16.2135 16.7895 16.443C18.8519 16.6726 20.101 17.9352 20.2462 19.9152C20.4205 22.0961 19.4038 23.7605 17.3995 24.564L17.3414 24.5927ZM5.49 29.758H8.4819C9.55667 29.758 10.6895 29.758 11.8224 29.758C14.2624 29.758 16.0633 29.758 17.5448 29.844C20.2752 29.9301 22.1924 31.738 22.2795 34.2919C22.3667 36.9606 20.5076 39.0268 17.8643 39.1702C16.5281 39.2276 14.9305 39.285 12.8681 39.285C11.4738 39.285 10.0505 39.285 8.65619 39.2563C7.55238 39.2563 6.47762 39.2563 5.49 39.2563V29.8153V29.758Z" fill="#003260"></path>
    <path d="M55.307 30.2744C60.1579 28.2657 62.4818 23.0143 60.7099 18.1073C59.3446 14.262 55.5975 11.622 51.4146 11.5359C49.207 11.5072 46.8251 11.4785 44.4432 11.4785H37.0941C34.6832 11.4785 33.7246 12.4255 33.7246 14.8359V43.8763H39.2146V31.25H44.1527C45.6632 31.25 47.1446 31.25 48.5389 31.25C49.0618 31.25 49.3232 31.3935 49.6137 31.91L50.8627 33.9762C52.5765 36.8171 54.0579 39.2849 55.1037 40.9206C56.9046 43.7328 61.0003 43.9623 62.1913 43.9623H63.3241L54.9584 30.4179L55.2779 30.2744H55.307ZM55.8298 21.4073C55.7427 24.3056 53.7384 26.2856 50.8627 26.343C48.2194 26.4004 45.2565 26.3717 42.3808 26.343C41.3351 26.343 40.2894 26.343 39.2727 26.343V16.2994H40.2022H44.937C46.7379 16.2994 49.0618 16.2994 51.1822 16.4142C53.9418 16.5577 55.917 18.6525 55.8298 21.3786V21.4073Z" fill="#003260"></path>
    <path d="M293.09 30.2744C297.941 28.2657 300.265 23.0143 298.493 18.1073C297.128 14.262 293.381 11.622 289.198 11.5359C286.961 11.5072 284.608 11.4785 282.226 11.4785H274.877C272.466 11.4785 271.508 12.4255 271.508 14.8359V43.8763H276.998V31.25H281.936C283.446 31.25 284.928 31.25 286.322 31.25C286.845 31.25 287.106 31.3935 287.397 31.91L288.704 34.0622C290.389 36.8744 291.841 39.2849 292.887 40.9206C294.688 43.7328 298.784 43.9623 299.974 43.9623H301.107L292.742 30.4179L293.061 30.2744H293.09ZM293.613 21.4073C293.526 24.3056 291.522 26.2856 288.646 26.343C286.003 26.4004 283.04 26.4004 280.164 26.343C279.118 26.343 278.073 26.343 277.056 26.343V16.2994H277.985H282.72C284.521 16.2994 286.845 16.2994 288.965 16.4142C291.725 16.5577 293.7 18.6525 293.613 21.3786V21.4073Z" fill="#003260"></path>
    <path d="M141.288 25.3385H124.266V11.5645H118.921V43.8761H124.324V30.4177H141.346V43.8474H146.69V11.5931H141.288V25.3385Z" fill="#003260"></path>
    <path d="M151.192 11.5933V16.3568H162.811V43.8762H168.272V16.3281H180.589L179.34 11.5933H151.192Z" fill="#003260"></path>
    <path d="M74.3912 11.5645H69.1045V43.8761H74.3912V11.5645Z" fill="#003260"></path>
    <path d="M218.118 12.0524C216.143 19.1116 214.197 26.1134 212.193 33.2587L210.885 29.2412C209.201 24.0473 207.487 18.8246 205.831 13.6019C205.599 12.8558 205.105 11.335 203.217 11.335C201.387 11.335 200.893 12.8845 200.69 13.5445C199.557 17.0455 198.453 20.5464 197.32 24.0473L194.328 33.2587L188.257 11.5932H182.971L183.145 12.5115C183.145 12.6837 183.203 12.8558 183.232 12.9993C183.987 15.7541 184.772 18.509 185.556 21.2638L191.365 41.9249C191.801 43.417 192.673 44.1631 194.038 44.1631C195.955 44.1631 196.449 42.5275 196.623 41.9823C197.117 40.3753 197.611 38.7683 198.134 37.19C199.789 31.9387 201.474 26.716 203.188 21.3499C204.234 24.5925 205.279 27.8351 206.325 31.0778L207.284 34.0622C208.155 36.7883 209.026 39.5144 209.898 42.2692C210.275 43.5031 211.176 44.1631 212.425 44.1631C213.587 44.1631 214.458 43.5318 214.894 42.3553C215.01 42.0683 215.097 41.7814 215.185 41.4657L221.865 17.8202C222.272 16.4141 222.65 15.008 223.027 13.6019L223.579 11.6219H218.205L218.089 12.0237L218.118 12.0524Z" fill="#003260"></path>
    <path d="M334.774 11.5648H333.322C332.799 11.5648 332.276 11.5648 331.782 11.5648H330.475C329.807 11.5648 329.139 11.5648 328.5 11.5935C327.774 11.6222 326.989 11.9379 326.495 12.3683C323.068 15.3527 319.669 18.3945 316.271 21.4075L313.308 24.0476C313.308 24.0476 313.163 24.1624 313.105 24.2197V11.6509H307.76V43.8765H313.221V30.5042C313.221 30.5042 313.308 30.5903 313.366 30.6189L315.312 32.3407C319.379 35.9564 323.445 39.5721 327.599 43.2165C327.919 43.5034 328.325 43.8765 328.848 43.9052C329.72 43.9339 330.591 43.9339 331.492 43.9339H335.791L317.171 27.2615L334.832 11.5361L334.774 11.5648Z" fill="#003260"></path>
    <path d="M358.738 28.725C357.402 27.9215 356.036 27.2041 354.7 26.4867L353.393 25.798C352.667 25.3963 351.912 25.0232 351.156 24.6215C349.617 23.818 348.019 22.9858 346.48 22.0675C345.695 21.6084 344.969 20.7762 344.65 20.0014C344.301 19.1406 344.33 18.3084 344.708 17.6484C345.144 16.9023 346.015 16.4431 347.148 16.2997C348.513 16.1275 349.995 16.0414 351.621 16.0414C352.609 16.0414 353.596 16.0701 354.584 16.1275C356.007 16.2136 357.431 16.4431 358.912 16.7014C359.58 16.8162 360.248 16.931 360.945 17.0458L361.468 17.1318L362.311 12.684L361.788 12.5692C361.352 12.4831 360.916 12.3683 360.51 12.2535C359.609 12.024 358.738 11.8231 357.837 11.7083L356.821 11.5935C354.875 11.364 352.87 11.1344 350.895 11.1631C348.92 11.2205 346.364 11.3926 344.069 12.1961C341.658 13.0283 339.944 14.8936 339.392 17.3327C338.782 19.9154 339.625 22.6415 341.629 24.5928C342.616 25.5398 343.778 26.4006 345.085 27.1467C346.422 27.8928 347.787 28.6102 349.123 29.2702C350.227 29.8442 351.36 30.3894 352.464 30.992C353.858 31.7381 355.426 32.599 356.763 33.6894C357.46 34.2633 357.866 35.0094 357.866 35.8416C357.866 36.6738 357.431 37.5347 356.675 38.1373C356.153 38.5677 355.485 38.9121 354.787 39.113C352.435 39.8304 349.995 39.8877 346.247 39.2277C344.853 38.9695 343.517 38.6251 342.094 38.2808C341.425 38.1086 340.757 37.9364 340.089 37.7929L339.566 37.6782L338.317 42.2121L338.869 42.3556C339.625 42.5565 340.38 42.7573 341.106 42.9295C342.82 43.3886 344.446 43.8191 346.131 44.106C347.874 44.393 349.443 44.5365 350.895 44.5365C353.161 44.5365 355.165 44.1921 357.082 43.4747C360.539 42.1834 362.456 39.9738 362.921 36.7599C363.415 33.3451 362.049 30.7337 358.738 28.7537V28.725Z" fill="#003260"></path>
    <path d="M95.218 26.8883C95.2761 27.0605 96.7285 30.9057 99.7204 30.9057H106.663V35.2675C106.663 36.0423 106.43 36.5301 105.878 36.9606C102.248 39.7441 98.0356 40.2893 93.388 38.625C89.147 37.1041 86.7651 33.9762 86.2713 29.2701C85.7775 24.4491 87.1427 20.9195 90.5123 18.423C92.807 16.7012 95.5666 15.8977 98.9361 15.8977C99.9527 15.8977 101.027 15.9551 102.218 16.1273C103.555 16.2995 104.833 16.5864 106.227 16.8734C106.866 17.0169 107.505 17.1604 108.144 17.2752L108.638 17.3612L109.916 13.229L109.016 12.856C108.667 12.7125 108.377 12.5977 108.086 12.4829C104.107 11.1629 99.9527 10.7325 95.6827 11.2203C90.9189 11.7655 86.7942 14.0612 84.0346 17.6482C81.3332 21.1491 80.2294 25.597 80.9266 30.1596C81.9142 36.5015 85.6904 41.0354 91.8485 43.2737C94.1142 44.1059 96.3508 44.5076 98.5004 44.5076C102.335 44.5076 105.937 43.1876 109.219 40.605C111.107 39.1128 111.949 36.5875 111.949 34.8658V26.1422H94.9275L95.1889 26.8883H95.218Z" fill="#003260"></path>
    <path d="M361.585 42.3844H362.34V44.2783H362.573V42.3844H363.386V42.1548H361.585V42.3844ZM365.768 42.1548L364.984 43.3026L364.199 42.1548H363.967V44.2783H364.199V42.5565L364.984 43.7044L365.768 42.5565V44.2783H366V42.1548H365.768Z" fill="#003260"></path>
  </g>
  <defs>
    <linearGradient id="paint0_linear_5524_1348" x1="254.863" y1="43.1301" x2="254.863" y2="5.71056" gradientUnits="userSpaceOnUse">
      <stop stop-color="#22682E"></stop>
      <stop offset="1" stop-color="#67FFB8"></stop>
    </linearGradient>
    <linearGradient id="paint1_linear_5524_1348" x1="231.684" y1="41.0067" x2="231.684" y2="20.8621" gradientUnits="userSpaceOnUse">
      <stop stop-color="#3548AA"></stop>
      <stop offset="1" stop-color="#61CCED"></stop>
    </linearGradient>
    <linearGradient id="paint2_linear_5524_1348" x1="223.289" y1="31.164" x2="240.107" y2="31.164" gradientUnits="userSpaceOnUse">
      <stop stop-color="#BFFFFF"></stop>
      <stop offset="1" stop-color="#47B8D1"></stop>
    </linearGradient>
    <linearGradient id="paint3_linear_5524_1348" x1="257.507" y1="54.5226" x2="257.507" y2="0.000219133" gradientUnits="userSpaceOnUse">
      <stop offset="0.26" stop-color="#003260"></stop>
      <stop offset="0.86" stop-color="#00A5D3"></stop>
    </linearGradient>
    <linearGradient id="paint4_linear_5524_1348" x1="231.626" y1="54.5225" x2="231.626" y2="0.000134676" gradientUnits="userSpaceOnUse">
      <stop offset="0.26" stop-color="#003260"></stop>
      <stop offset="0.86" stop-color="#00A5D3"></stop>
    </linearGradient>
    <linearGradient id="paint5_linear_5524_1348" x1="228.111" y1="54.5225" x2="228.111" y2="0.000164462" gradientUnits="userSpaceOnUse">
      <stop offset="0.26" stop-color="#003260"></stop>
      <stop offset="0.86" stop-color="#00A5D3"></stop>
    </linearGradient>
    <linearGradient id="paint6_linear_5524_1348" x1="255.561" y1="54.5222" x2="255.561" y2="-0.000114125" gradientUnits="userSpaceOnUse">
      <stop offset="0.26" stop-color="#003260"></stop>
      <stop offset="0.86" stop-color="#00A5D3"></stop>
    </linearGradient>
    <linearGradient id="paint7_linear_5524_1348" x1="243.419" y1="54.5223" x2="243.419" y2="-7.41128e-05" gradientUnits="userSpaceOnUse">
      <stop offset="0.26" stop-color="#003260"></stop>
      <stop offset="0.86" stop-color="#00A5D3"></stop>
    </linearGradient>
    <linearGradient id="paint8_linear_5524_1348" x1="272.786" y1="54.5224" x2="272.786" y2="0.000120517" gradientUnits="userSpaceOnUse">
      <stop offset="0.26" stop-color="#003260"></stop>
      <stop offset="0.86" stop-color="#00A5D3"></stop>
    </linearGradient>
    <linearGradient id="paint9_linear_5524_1348" x1="248.385" y1="54.5223" x2="248.385" y2="-7.70435e-05" gradientUnits="userSpaceOnUse">
      <stop offset="0.26" stop-color="#003260"></stop>
      <stop offset="0.86" stop-color="#00A5D3"></stop>
    </linearGradient>
    <linearGradient id="paint10_linear_5524_1348" x1="268.893" y1="54.5223" x2="268.893" y2="2.65774e-05" gradientUnits="userSpaceOnUse">
      <stop offset="0.26" stop-color="#003260"></stop>
      <stop offset="0.86" stop-color="#00A5D3"></stop>
    </linearGradient>
    <linearGradient id="paint11_linear_5524_1348" x1="265.117" y1="54.5225" x2="265.117" y2="0.000135935" gradientUnits="userSpaceOnUse">
      <stop offset="0.26" stop-color="#003260"></stop>
      <stop offset="0.86" stop-color="#00A5D3"></stop>
    </linearGradient>
    <linearGradient id="paint12_linear_5524_1348" x1="262.765" y1="54.5225" x2="262.765" y2="0.000199212" gradientUnits="userSpaceOnUse">
      <stop offset="0.26" stop-color="#003260"></stop>
      <stop offset="0.86" stop-color="#00A5D3"></stop>
    </linearGradient>
    <linearGradient id="paint13_linear_5524_1348" x1="237.464" y1="54.5225" x2="237.464" y2="0.000194882" gradientUnits="userSpaceOnUse">
      <stop offset="0.26" stop-color="#003260"></stop>
      <stop offset="0.86" stop-color="#00A5D3"></stop>
    </linearGradient>
    <linearGradient id="paint14_linear_5524_1348" x1="229.795" y1="54.5225" x2="229.795" y2="0.000147953" gradientUnits="userSpaceOnUse">
      <stop offset="0.26" stop-color="#003260"></stop>
      <stop offset="0.86" stop-color="#00A5D3"></stop>
    </linearGradient>
    <linearGradient id="paint15_linear_5524_1348" x1="242.722" y1="54.5223" x2="242.722" y2="0" gradientUnits="userSpaceOnUse">
      <stop offset="0.26" stop-color="#003260"></stop>
      <stop offset="0.86" stop-color="#00A5D3"></stop>
    </linearGradient>
    <linearGradient id="paint16_linear_5524_1348" x1="249.286" y1="54.5223" x2="249.286" y2="0" gradientUnits="userSpaceOnUse">
      <stop offset="0.26" stop-color="#003260"></stop>
      <stop offset="0.86" stop-color="#00A5D3"></stop>
    </linearGradient>
    <linearGradient id="paint17_linear_5524_1348" x1="220.791" y1="54.5221" x2="220.791" y2="-0.000140461" gradientUnits="userSpaceOnUse">
      <stop offset="0.26" stop-color="#003260"></stop>
      <stop offset="0.86" stop-color="#00A5D3"></stop>
    </linearGradient>
    <linearGradient id="paint18_linear_5524_1348" x1="236.447" y1="54.5226" x2="236.447" y2="0.000218742" gradientUnits="userSpaceOnUse">
      <stop offset="0.26" stop-color="#003260"></stop>
      <stop offset="0.86" stop-color="#00A5D3"></stop>
    </linearGradient>
    <linearGradient id="paint19_linear_5524_1348" x1="222.621" y1="54.5221" x2="222.621" y2="-0.000242894" gradientUnits="userSpaceOnUse">
      <stop offset="0.26" stop-color="#003260"></stop>
      <stop offset="0.86" stop-color="#00A5D3"></stop>
    </linearGradient>
    <linearGradient id="paint20_linear_5524_1348" x1="223.521" y1="54.5224" x2="223.521" y2="5.35406e-05" gradientUnits="userSpaceOnUse">
      <stop offset="0.26" stop-color="#003260"></stop>
      <stop offset="0.86" stop-color="#00A5D3"></stop>
    </linearGradient>
    <clipPath id="clip0_5524_1348">
      <rect width="366" height="79" fill="white"></rect>
    </clipPath>
  </defs>
</svg>
