<?xml version="1.0" encoding="UTF-8" standalone="no"?>
<!-- Created with Inkscape (http://www.inkscape.org/) -->

<svg
   xmlns:dc="http://purl.org/dc/elements/1.1/"
   xmlns:cc="http://creativecommons.org/ns#"
   xmlns:rdf="http://www.w3.org/1999/02/22-rdf-syntax-ns#"
   xmlns:svg="http://www.w3.org/2000/svg"
   xmlns="http://www.w3.org/2000/svg"
   xmlns:sodipodi="http://sodipodi.sourceforge.net/DTD/sodipodi-0.dtd"
   xmlns:inkscape="http://www.inkscape.org/namespaces/inkscape"
   width="28.616592mm"
   height="5.2923722mm"
   viewBox="0 0 101.39737 18.7525"
   id="svg9393"
   version="1.1"
   inkscape:version="0.91 r13725"
   sodipodi:docname="Logo Gallup.svg">
  <defs
     id="defs9395" />
  <sodipodi:namedview
     id="base"
     pagecolor="#ffffff"
     bordercolor="#666666"
     borderopacity="1.0"
     inkscape:pageopacity="0.0"
     inkscape:pageshadow="2"
     inkscape:zoom="0.35"
     inkscape:cx="442.84154"
     inkscape:cy="303.66197"
     inkscape:document-units="px"
     inkscape:current-layer="layer1"
     showgrid="false"
     fit-margin-top="0"
     fit-margin-left="0"
     fit-margin-right="0"
     fit-margin-bottom="0"
     inkscape:window-width="1600"
     inkscape:window-height="837"
     inkscape:window-x="-8"
     inkscape:window-y="-8"
     inkscape:window-maximized="1" />
  <metadata
     id="metadata9398">
    <rdf:RDF>
      <cc:Work
         rdf:about="">
        <dc:format>image/svg+xml</dc:format>
        <dc:type
           rdf:resource="http://purl.org/dc/dcmitype/StillImage" />
        <dc:title></dc:title>
      </cc:Work>
    </rdf:RDF>
  </metadata>
  <g
     inkscape:label="Ebene 1"
     inkscape:groupmode="layer"
     id="layer1"
     transform="translate(533.55583,-817.27167)">
    <g
       transform="translate(250.13264,688.57055)"
       id="g9366">
      <g
         transform="matrix(1.25,0,0,-1.25,-767.79972,129.10112)"
         id="g8052">
        <path
           inkscape:connector-curvature="0"
           id="path8054"
           style="fill:#565353;fill-opacity:1;fill-rule:nonzero;stroke:none"
           d="m 0,0 0.324,-4.21 -0.762,0 c -0.33,1.523 -0.634,1.972 -1.225,2.542 -0.852,0.821 -1.945,1.232 -3.282,1.232 -1.823,0 -3.209,-0.719 -4.158,-2.156 -0.795,-1.216 -1.192,-2.66 -1.192,-4.338 0,-1.361 0.264,-2.603 0.794,-3.727 0.531,-1.123 1.226,-1.947 2.084,-2.468 0.858,-0.523 1.741,-0.785 2.645,-0.785 0.53,0 1.043,0.065 1.539,0.196 0.493,0.132 0.97,0.324 1.43,0.579 l 0,3.141 c 0,0.753 -0.055,0.932 -0.165,1.165 -0.11,0.233 -0.278,0.409 -0.509,0.531 -0.23,0.122 -0.634,0.183 -1.213,0.183 l 0,0.802 5.586,0 0,-0.802 -0.273,0 c -0.568,0 -0.958,-0.192 -1.169,-0.576 -0.146,-0.273 -0.219,-0.5 -0.219,-1.303 l 0,-3.418 c -0.809,-0.432 -1.608,-0.749 -2.397,-0.951 -0.789,-0.2 -1.665,-0.303 -2.629,-0.303 -2.767,0 -4.868,0.89 -6.304,2.663 -1.078,1.333 -1.616,2.867 -1.616,4.608 0,1.262 0.303,2.471 0.911,3.625 0.719,1.374 1.708,2.431 2.964,3.17 1.051,0.613 2.294,0.92 3.726,0.92 0.523,0 0.997,-0.043 1.425,-0.127 0.426,-0.085 1.031,-0.27 1.815,-0.558 0.395,-0.147 0.454,-0.192 0.588,-0.221 0.188,-0.04 0.436,0.019 0.511,0.153 0.097,0.175 0.098,0.327 0.105,0.433 L 0,0 Z" />
      </g>
      <g
         transform="matrix(1.25,0,0,-1.25,-760.59022,139.69062)"
         id="g8056">
        <path
           inkscape:connector-curvature="0"
           id="path8058"
           style="fill:#565353;fill-opacity:1;fill-rule:nonzero;stroke:none"
           d="M 0,0 2.461,5.55 4.9,0 0,0 Z M 2.709,8.476 -2.243,-2.997 C -2.682,-4.05 -3.082,-4.53 -3.443,-4.876 -3.62,-5.047 -4.009,-5.188 -4.61,-5.296 l 0,-0.597 4.546,0 0,0.597 c -0.693,0.052 -1.066,0.118 -1.275,0.285 -0.209,0.167 -0.391,0.405 -0.391,0.625 0,0.278 0.12,0.479 0.36,1.042 l 0.97,2.246 5.602,0 0.852,-2.064 C 6.338,-3.834 6.492,-4.093 6.492,-4.403 6.492,-4.636 6.391,-4.834 6.19,-4.997 5.988,-5.159 5.587,-5.235 5.015,-5.265 l 0,-0.628 5.132,0 1.202,0 10.553,0 1.246,3.892 -0.701,0.121 c -0.368,-0.89 -0.737,-1.539 -1.105,-1.953 -0.368,-0.413 -0.776,-0.7 -1.221,-0.861 -0.447,-0.163 -0.863,-0.291 -1.966,-0.291 l -1.053,0 c -0.928,0 -1.48,0.034 -1.658,0.104 -0.176,0.071 -0.307,0.182 -0.392,0.331 -0.114,0.222 -0.171,0.625 -0.171,1.214 l 0,9.07 c 0,0.849 0.056,0.992 0.168,1.217 0.112,0.224 0.319,0.409 0.623,0.557 0.305,0.147 0.833,0.232 1.588,0.225 l 0,0.742 -6.492,0 0,-0.742 0.543,0 c 0.545,0 0.957,-0.173 1.235,-0.489 0.198,-0.231 0.297,-0.408 0.297,-1.321 l 0,-9.248 c 0,-0.83 -0.075,-1.166 -0.223,-1.397 -0.259,-0.392 -1.175,-0.48 -1.797,-0.498 -0.579,0.018 -1.142,0.098 -1.469,0.385 -0.329,0.286 -0.695,0.724 -1.098,1.692 L 3.454,8.474 2.709,8.476 Z" />
      </g>
      <g
         transform="matrix(1.25,0,0,-1.25,-716.3086,141.95999)"
         id="g8060">
        <path
           inkscape:connector-curvature="0"
           id="path8062"
           style="fill:#565353;fill-opacity:1;fill-rule:nonzero;stroke:none"
           d="m 0,0 0.727,-0.186 -1.246,-3.891 -11.135,0 0,0.701 0.544,0 c 0.609,0 1.046,0.2 1.308,0.602 0.15,0.228 0.224,0.434 0.224,1.264 l 0,9.248 c 0,0.913 -0.1,1.104 -0.298,1.334 -0.277,0.316 -0.688,0.475 -1.234,0.475 l -0.544,0 0,0.743 6.492,0 0,-0.743 C -5.917,9.553 -6.445,9.484 -6.748,9.336 -7.053,9.189 -7.261,9.003 -7.372,8.779 -7.484,8.554 -7.54,8.399 -7.54,7.549 l 0,-9.07 c 0,-0.588 0.057,-0.992 0.169,-1.213 0.086,-0.15 0.218,-0.26 0.394,-0.331 0.177,-0.071 0.729,-0.105 1.658,-0.105 l 1.052,0 c 1.105,0 1.493,0.192 1.94,0.355 0.445,0.163 0.853,0.45 1.221,0.863 C -0.738,-1.54 -0.368,-0.89 0,0" />
      </g>
      <g
         transform="matrix(1.25,0,0,-1.25,-686.48497,137.32737)"
         id="g8064">
        <path
           inkscape:connector-curvature="0"
           id="path8066"
           style="fill:#565353;fill-opacity:1;fill-rule:nonzero;stroke:none"
           d="m 0,0 c -0.451,-0.326 -1.268,-0.567 -1.863,-0.623 -0.314,-0.028 -0.905,-0.035 -1.202,-0.022 -0.373,0.017 -0.673,0.063 -0.934,0.113 l 0,6.147 C -3.681,5.702 -2.847,5.741 -2.618,5.74 -1.931,5.734 -1.087,5.681 -0.576,5.527 -0.171,5.404 0.377,5.172 0.82,4.415 1.197,3.77 1.272,3.028 1.236,2.408 1.16,1.08 0.783,0.568 0,0 m -9.045,6.582 -4.754,0.001 0,-0.747 0.543,0 c 0.547,0 0.957,-0.16 1.236,-0.476 0.196,-0.229 0.297,-0.431 0.297,-1.344 l 0,-5.795 c 0,-1.521 -0.136,-2.599 -0.409,-3.236 -0.272,-0.636 -0.78,-1.16 -1.522,-1.567 -0.743,-0.407 -1.585,-0.612 -2.526,-0.612 -0.735,0 -1.356,0.13 -1.861,0.39 -0.507,0.26 -0.894,0.59 -1.162,0.992 -0.27,0.401 -0.454,0.96 -0.556,1.678 -0.103,0.719 -0.155,1.356 -0.155,1.911 l 0,6.239 c 0,0.82 0.087,0.989 0.264,1.249 0.253,0.381 0.674,0.57 1.263,0.57 l 0.549,0 0,0.748 -6.19,0 0,-0.748 0.537,0 c 0.541,0 0.932,-0.14 1.175,-0.42 0.242,-0.281 0.363,-0.5 0.363,-1.399 l 0,-5.593 c 0,-1.725 0.113,-2.902 0.34,-3.526 0.339,-0.915 0.916,-1.643 1.728,-2.184 0.813,-0.541 2.003,-0.814 3.572,-0.814 1.442,0 2.581,0.285 3.418,0.85 0.837,0.567 1.399,1.247 1.686,2.039 0.286,0.793 0.43,1.906 0.43,3.344 l 0,5.809 c 0,0.807 0.074,0.953 0.224,1.176 0.304,0.479 0.741,0.719 1.308,0.719 l 0.203,0 1.272,0 0.205,0 c 0.548,0 0.963,-0.16 1.241,-0.476 0.191,-0.222 0.289,-0.423 0.289,-1.344 l 0,-9.247 c 0,-0.834 -0.07,-1.042 -0.214,-1.266 -0.264,-0.4 -0.704,-0.604 -1.316,-0.604 l -0.546,0 0,-0.681 6.19,0 0,0.679 -0.554,0 c -0.545,0 -0.955,0.148 -1.224,0.464 -0.2,0.222 -0.298,0.488 -0.298,1.408 l 0,3.987 c 0.531,-0.062 0.928,-0.078 1.3,-0.091 0.406,-0.016 0.712,-0.011 1.107,-0.009 1.352,0.007 2.61,0.425 3.506,1.051 C 3.138,0.564 3.331,2.049 3.352,2.61 3.404,3.915 2.789,4.772 2.471,5.153 1.974,5.747 1.027,6.266 0.332,6.457 -0.188,6.6 -1.347,6.607 -2.881,6.6 L -9.045,6.582 Z" />
      </g>
    </g>
  </g>
</svg>
