<svg width="200" height="200" viewBox="0 0 200 200" fill="none" xmlns="http://www.w3.org/2000/svg">
<g clip-path="url(#clip0_241_329)">
<rect width="200" height="200" rx="8" fill="#01313D"/>
<rect x="110.365" y="45.335" width="14.5287" height="3.96238" fill="white"/>
<rect x="73.3828" y="53.2595" width="14.5287" height="3.96238" fill="white"/>
<rect x="91.873" y="53.2595" width="14.5287" height="3.96238" fill="white"/>
<rect x="91.873" y="45.335" width="14.5287" height="3.96238" fill="white"/>
<rect x="110.365" y="53.2595" width="14.5287" height="3.96238" fill="white"/>
<rect x="110.365" y="37.41" width="14.5287" height="3.96238" fill="white"/>
<path d="M32.909 143H28.8436L36.2456 121.975H40.9476L48.3599 143H44.2944L38.6787 126.286H38.5145L32.909 143ZM33.0425 134.756H44.1301V137.816H33.0425V134.756ZM69.138 129.069H65.2984C65.1889 128.439 64.9869 127.881 64.6926 127.395C64.3983 126.902 64.0322 126.485 63.5941 126.143C63.1561 125.8 62.6565 125.544 62.0953 125.373C61.5409 125.195 60.942 125.106 60.2987 125.106C59.1557 125.106 58.1427 125.393 57.2598 125.968C56.3769 126.536 55.6856 127.371 55.186 128.473C54.6864 129.568 54.4366 130.906 54.4366 132.487C54.4366 134.096 54.6864 135.451 55.186 136.553C55.6925 137.648 56.3838 138.476 57.2598 139.037C58.1427 139.592 59.1522 139.869 60.2884 139.869C60.9181 139.869 61.5067 139.787 62.0542 139.622C62.6086 139.451 63.1048 139.201 63.5428 138.873C63.9877 138.544 64.3607 138.141 64.6618 137.662C64.9698 137.182 65.182 136.635 65.2984 136.019L69.138 136.039C68.9942 137.039 68.6828 137.976 68.2037 138.852C67.7315 139.728 67.1121 140.502 66.3455 141.173C65.579 141.836 64.6824 142.357 63.6557 142.733C62.6291 143.103 61.4895 143.287 60.2371 143.287C58.3891 143.287 56.7397 142.86 55.2887 142.004C53.8377 141.149 52.6947 139.913 51.8597 138.298C51.0247 136.683 50.6072 134.746 50.6072 132.487C50.6072 130.222 51.0282 128.285 51.87 126.677C52.7118 125.061 53.8582 123.826 55.3092 122.97C56.7602 122.115 58.4028 121.687 60.2371 121.687C61.4074 121.687 62.4957 121.851 63.5018 122.18C64.5079 122.508 65.4044 122.991 66.1915 123.627C66.9786 124.257 67.6254 125.03 68.1319 125.948C68.6452 126.858 68.9806 127.898 69.138 129.069ZM72.702 125.167V121.975H89.4772V125.167H82.9786V143H79.2006V125.167H72.702ZM97.5199 121.975V143H93.7111V121.975H97.5199ZM105.457 121.975L110.929 138.524H111.145L116.607 121.975H120.795L113.383 143H108.681L101.279 121.975H105.457ZM128.373 121.975V143H124.565V121.975H128.373ZM132.574 125.167V121.975H149.349V125.167H142.851V143H139.073V125.167H132.574ZM152.146 121.975H156.447L161.591 131.276H161.796L166.94 121.975H171.241L163.593 135.157V143H159.794V135.157L152.146 121.975Z" fill="white"/>
<g clip-path="url(#clip1_241_329)">
<mask id="mask0_241_329" style="mask-type:luminance" maskUnits="userSpaceOnUse" x="29" y="75" width="139" height="32">
<path d="M168 75H29V107H168V75Z" fill="white"/>
</mask>
<g mask="url(#mask0_241_329)">
<path d="M131.422 104.943L131.525 104.977C131.589 105.29 131.562 106.212 131.56 106.577L124.293 106.578L124.197 106.477C124.132 106.015 124.17 105.427 124.186 104.951C126.598 104.961 129.01 104.959 131.422 104.943Z" fill="#FEFEFE"/>
<path d="M142.411 100.9C144.876 100.919 147.34 100.917 149.803 100.894L149.806 102.523C149.135 102.569 148.042 102.53 147.324 102.53L142.415 102.535C142.398 102.009 142.411 101.431 142.411 100.9Z" fill="#FEFEFE"/>
<path d="M142.418 104.934C143.613 104.995 145.077 104.952 146.288 104.959C147.303 104.965 148.807 105.002 149.793 104.917L149.805 106.58L142.415 106.578C142.398 106.021 142.408 105.489 142.418 104.934Z" fill="#FEFEFE"/>
<path d="M100.48 75H102.56C103.223 75.1369 103.789 75.1937 104.455 75.3759C106.782 76.0117 108.563 77.2423 110.131 79.0942C110.94 74.5469 113.984 75.4654 117.501 75.3814L117.507 95.5275C117.507 99.1119 117.591 103.066 117.5 106.625C115.164 106.639 112.528 106.686 110.21 106.622C110.181 105.361 110.172 104.099 110.183 102.837C108.377 104.956 106.277 106.326 103.57 106.832C103.278 106.887 102.883 106.926 102.612 107H100.418C100.153 106.923 99.0111 106.761 98.6189 106.681C96.8663 106.329 95.1974 105.626 93.7067 104.614C86.5425 99.7128 85.1999 88.4643 89.8288 81.3258C91.672 78.4673 94.4697 76.4041 97.6917 75.527C98.7519 75.2389 99.472 75.2066 100.48 75ZM103.132 100.903C111.231 99.5814 112.431 87.0099 106.444 82.4343C105.194 81.4794 103.168 80.8253 101.605 81.1002C91.294 82.6013 92.5918 101.841 103.132 100.903Z" fill="#FEFEFE"/>
<path d="M69.1926 75H71.45C72.3327 75.1889 73.0464 75.2248 73.9734 75.4713C77.0065 76.2707 79.6328 78.2231 81.3237 80.9356C83.4891 84.34 84.4257 89.4482 83.8397 93.4373C76.9731 93.4559 69.8538 93.5327 63.0025 93.44C63.5887 95.9563 64.6656 98.3123 66.8426 99.7378C70.9223 102.409 75.5253 100.414 78.0007 96.5881C79.0377 97.2653 80.1104 98.0435 81.1296 98.7595C81.7074 99.1653 82.6211 99.7668 83.1423 100.193C81.1763 103.405 77.8086 105.724 74.2254 106.588C73.4156 106.783 72.657 106.842 71.8566 107H69.4729C69.0632 106.887 68.1151 106.779 67.6059 106.673C65.6626 106.281 63.8139 105.497 62.1669 104.365C54.9873 99.4437 53.4547 88.7538 58.1489 81.5398C60.0805 78.5698 63.0024 76.4313 66.3619 75.5288C67.466 75.231 68.1565 75.2099 69.1926 75ZM63.0021 88.4919L70.4362 88.501L76.9017 88.5004C76.7731 87.3837 76.6402 86.5492 76.2611 85.478C75.25 82.6208 72.6124 80.6783 69.6034 81.1022C65.7325 81.6434 63.7888 84.8055 63.0021 88.4919Z" fill="#FEFEFE"/>
<path d="M139.231 75H141.163C141.817 75.1404 142.329 75.2072 142.982 75.4056C145.068 76.031 146.866 77.4073 148.049 79.2835C148.35 79.7569 148.565 80.1765 148.794 80.6868C150.441 77.8632 152.383 76.2528 155.54 75.3724C156.083 75.2209 157.059 75.1177 157.451 75H159.366C160.075 75.1467 160.745 75.2454 161.443 75.4644C164.896 76.547 167.333 79.8231 167.831 83.4486C167.883 83.8234 167.935 84.2034 167.999 84.5774V94.6432C165.744 94.7359 163.054 94.6365 160.735 94.6658C160.654 93.0344 160.65 90.866 160.716 89.1688C160.851 85.6201 160.178 81.2419 155.852 81.0671C152.728 80.941 150.64 83.6918 150.079 86.6479C149.714 88.5699 149.793 90.4038 149.794 92.3891L149.801 98.5804C147.436 98.5399 144.773 98.5334 142.414 98.588C142.323 95.353 142.456 91.9056 142.407 88.6357C142.47 86.6456 142.268 83.8106 140.681 82.3811C137.079 79.1369 132.524 82.2099 131.859 86.5818C131.448 89.2827 131.555 91.1222 131.555 93.6345L131.558 102.528L124.195 102.526C124.123 101.23 124.164 99.6785 124.164 98.3564L124.163 91.2248C124.162 86.0918 124.051 80.4719 124.186 75.3731C127.278 75.5206 131.229 74.5673 131.564 79.1593C133.015 77.0741 135.434 75.7053 137.858 75.24C138.317 75.152 138.772 75.0939 139.231 75Z" fill="#FEFEFE"/>
<path d="M32.4063 97.5576C35.5473 99.6925 38.9276 101.56 42.8985 100.855C43.8141 100.678 44.7368 100.176 45.2609 99.3707C45.6154 98.8256 45.8039 97.8478 45.6555 97.2115C45.1932 95.3708 42.4932 94.5817 40.9739 94.0327C36.828 92.5348 31.9167 91.3677 30.8759 86.2279C29.8518 81.1701 33.0792 76.3371 37.9335 75.2908C38.9938 75.0623 40.0756 75.0767 41.152 75.0646C45.6438 75.0185 48.2572 76.1468 52.131 78.2015C51.2972 80.026 50.129 81.9172 49.2532 83.741C46.578 81.9762 43.1725 80.5713 39.944 81.0526C38.3146 81.2954 37.4953 82.9359 37.8473 84.5011C38.2671 86.3678 41.1498 86.9953 42.7137 87.5764C46.795 89.0923 51.5385 90.5059 52.6522 95.4575C53.1596 97.7008 52.7781 100.06 51.5923 102.013C50.0805 104.492 47.5888 105.899 44.8814 106.579C44.0705 106.782 42.9933 106.798 42.2797 107H40.1667C39.3581 106.791 38.1023 106.713 37.0828 106.45C33.9722 105.648 31.6904 104.338 29 102.662V102.585C30.147 100.959 31.2886 99.2133 32.4063 97.5576Z" fill="#FEFEFE"/>
<path d="M160.731 104.937C163.125 104.986 165.6 104.951 168 104.948V106.569L160.735 106.579C160.703 106.035 160.72 105.482 160.731 104.937Z" fill="#FEFEFE"/>
<path d="M168.001 96.9602V98.5629C165.835 98.6557 162.935 98.5742 160.734 98.5821C160.703 98.0273 160.72 97.5092 160.734 96.9556C163.098 97.0086 165.623 96.9661 168.001 96.9602Z" fill="#FEFEFE"/>
<path d="M160.73 100.911L168 100.909V102.526L160.737 102.529C160.714 101.956 160.714 101.484 160.73 100.911Z" fill="#FEFEFE"/>
</g>
</g>
</g>
<defs>
<clipPath id="clip0_241_329">
<rect width="200" height="200" fill="white"/>
</clipPath>
<clipPath id="clip1_241_329">
<rect width="139" height="32" fill="white" transform="translate(29 75)"/>
</clipPath>
</defs>
</svg>
