<svg width="186" height="232" viewBox="0 0 186 232" fill="none" xmlns="http://www.w3.org/2000/svg">
<path d="M53.931 140.601V126.638H62.6855V128.451H56.0378V132.706H62.2287V134.513H56.0378V138.788H62.7673V140.601H53.931ZM64.8111 128.451V126.638H75.6179V128.451H71.2611V140.601H69.1611V128.451H64.8111ZM78.006 140.601V126.638H80.1128V132.706H87.0742V126.638H89.1878V140.601H87.0742V134.513H80.1128V140.601H78.006ZM94.3628 126.638V140.601H92.256V126.638H94.3628ZM109.029 131.179H106.901C106.82 130.724 106.667 130.324 106.445 129.979C106.222 129.633 105.949 129.34 105.626 129.099C105.304 128.858 104.942 128.676 104.542 128.554C104.147 128.431 103.726 128.369 103.281 128.369C102.476 128.369 101.756 128.572 101.12 128.976C100.488 129.381 99.9878 129.974 99.6196 130.756C99.256 131.538 99.0742 132.492 99.0742 133.619C99.0742 134.756 99.256 135.715 99.6196 136.497C99.9878 137.279 100.49 137.869 101.126 138.27C101.763 138.67 102.479 138.87 103.274 138.87C103.715 138.87 104.133 138.81 104.529 138.692C104.929 138.57 105.29 138.39 105.613 138.154C105.936 137.917 106.208 137.629 106.431 137.288C106.658 136.942 106.815 136.547 106.901 136.101L109.029 136.108C108.915 136.794 108.695 137.426 108.367 138.004C108.045 138.576 107.629 139.072 107.12 139.49C106.615 139.904 106.038 140.224 105.388 140.451C104.738 140.679 104.029 140.792 103.261 140.792C102.051 140.792 100.974 140.506 100.029 139.933C99.0832 139.356 98.3378 138.531 97.7923 137.458C97.2514 136.385 96.981 135.106 96.981 133.619C96.981 132.129 97.2537 130.849 97.7992 129.781C98.3446 128.708 99.0901 127.885 100.036 127.313C100.981 126.735 102.056 126.447 103.261 126.447C104.001 126.447 104.692 126.554 105.333 126.767C105.979 126.976 106.558 127.285 107.072 127.694C107.586 128.099 108.011 128.594 108.347 129.181C108.683 129.763 108.911 130.429 109.029 131.179ZM112.636 140.601H110.399L115.424 126.638H117.858L122.883 140.601H120.647L116.699 129.174H116.59L112.636 140.601ZM113.011 135.133H120.265V136.906H113.011V135.133ZM124.9 140.601V126.638H127.007V138.788H133.334V140.601H124.9Z" fill="white"/>
<path d="M21.1935 161.001V147.038H26.1707C27.2571 147.038 28.1571 147.235 28.8707 147.631C29.5844 148.026 30.1185 148.567 30.473 149.254C30.8276 149.935 31.0048 150.704 31.0048 151.558C31.0048 152.417 30.8253 153.19 30.4662 153.876C30.1117 154.558 29.5753 155.099 28.8571 155.499C28.1435 155.895 27.2457 156.092 26.1639 156.092H22.7412V154.306H25.973C26.6594 154.306 27.2162 154.188 27.6435 153.951C28.0707 153.71 28.3844 153.383 28.5844 152.97C28.7844 152.556 28.8844 152.085 28.8844 151.558C28.8844 151.031 28.7844 150.563 28.5844 150.154C28.3844 149.745 28.0685 149.424 27.6367 149.192C27.2094 148.96 26.6457 148.845 25.9457 148.845H23.3003V161.001H21.1935ZM33.4747 161.001V147.038H38.452C39.5338 147.038 40.4315 147.224 41.1452 147.597C41.8634 147.97 42.3997 148.485 42.7543 149.145C43.1088 149.799 43.2861 150.556 43.2861 151.415C43.2861 152.27 43.1065 153.022 42.7474 153.672C42.3929 154.317 41.8565 154.82 41.1384 155.179C40.4247 155.538 39.527 155.717 38.4452 155.717H34.6747V153.904H38.2543C38.9361 153.904 39.4906 153.806 39.9179 153.61C40.3497 153.415 40.6656 153.131 40.8656 152.758C41.0656 152.385 41.1656 151.938 41.1656 151.415C41.1656 150.888 41.0634 150.431 40.8588 150.045C40.6588 149.658 40.3429 149.363 39.9111 149.158C39.4838 148.949 38.9224 148.845 38.227 148.845H35.5815V161.001H33.4747ZM40.3679 154.701L43.8179 161.001H41.4179L38.0361 154.701H40.3679ZM57.9793 154.02C57.9793 155.51 57.7065 156.792 57.1611 157.865C56.6156 158.933 55.8679 159.756 54.9179 160.333C53.9724 160.906 52.8974 161.192 51.6929 161.192C50.4838 161.192 49.4043 160.906 48.4543 160.333C47.5088 159.756 46.7634 158.931 46.2179 157.858C45.6724 156.785 45.3997 155.506 45.3997 154.02C45.3997 152.529 45.6724 151.249 46.2179 150.181C46.7634 149.108 47.5088 148.285 48.4543 147.713C49.4043 147.135 50.4838 146.847 51.6929 146.847C52.8974 146.847 53.9724 147.135 54.9179 147.713C55.8679 148.285 56.6156 149.108 57.1611 150.181C57.7065 151.249 57.9793 152.529 57.9793 154.02ZM55.8929 154.02C55.8929 152.883 55.7088 151.926 55.3406 151.149C54.977 150.367 54.477 149.776 53.8406 149.376C53.2088 148.972 52.4929 148.77 51.6929 148.77C50.8884 148.77 50.1702 148.972 49.5384 149.376C48.9065 149.776 48.4065 150.367 48.0384 151.149C47.6747 151.926 47.4929 152.883 47.4929 154.02C47.4929 155.156 47.6747 156.115 48.0384 156.897C48.4065 157.674 48.9065 158.265 49.5384 158.67C50.1702 159.07 50.8884 159.27 51.6929 159.27C52.4929 159.27 53.2088 159.07 53.8406 158.67C54.477 158.265 54.977 157.674 55.3406 156.897C55.7088 156.115 55.8929 155.156 55.8929 154.02ZM72.2037 151.579H70.0764C69.9946 151.124 69.8423 150.724 69.6196 150.379C69.3969 150.033 69.1242 149.74 68.8014 149.499C68.4787 149.258 68.1173 149.076 67.7173 148.954C67.3219 148.831 66.9014 148.77 66.456 148.77C65.6514 148.77 64.931 148.972 64.2946 149.376C63.6628 149.781 63.1628 150.374 62.7946 151.156C62.431 151.938 62.2492 152.892 62.2492 154.02C62.2492 155.156 62.431 156.115 62.7946 156.897C63.1628 157.679 63.6651 158.27 64.3014 158.67C64.9378 159.07 65.6537 159.27 66.4492 159.27C66.8901 159.27 67.3082 159.21 67.7037 159.092C68.1037 158.97 68.4651 158.79 68.7878 158.554C69.1105 158.317 69.3832 158.029 69.606 157.688C69.8332 157.342 69.9901 156.947 70.0764 156.501L72.2037 156.508C72.0901 157.195 71.8696 157.826 71.5423 158.404C71.2196 158.976 70.8037 159.472 70.2946 159.89C69.7901 160.304 69.2128 160.624 68.5628 160.851C67.9128 161.079 67.2037 161.192 66.4355 161.192C65.2264 161.192 64.1492 160.906 63.2037 160.333C62.2582 159.756 61.5128 158.931 60.9673 157.858C60.4264 156.785 60.156 155.506 60.156 154.02C60.156 152.529 60.4287 151.249 60.9742 150.181C61.5196 149.108 62.2651 148.285 63.2105 147.713C64.156 147.135 65.231 146.847 66.4355 146.847C67.1764 146.847 67.8673 146.954 68.5082 147.167C69.1537 147.376 69.7332 147.685 70.2469 148.095C70.7605 148.499 71.1855 148.995 71.5219 149.581C71.8582 150.163 72.0855 150.829 72.2037 151.579ZM83.7043 147.038H85.8179V156.222C85.8179 157.199 85.5884 158.065 85.1293 158.82C84.6702 159.57 84.0247 160.16 83.1929 160.592C82.3611 161.02 81.3861 161.233 80.2679 161.233C79.1543 161.233 78.1815 161.02 77.3497 160.592C76.5179 160.16 75.8724 159.57 75.4134 158.82C74.9543 158.065 74.7247 157.199 74.7247 156.222V147.038H76.8315V156.051C76.8315 156.683 76.9702 157.245 77.2474 157.735C77.5293 158.226 77.927 158.613 78.4406 158.895C78.9543 159.172 79.5634 159.31 80.2679 159.31C80.977 159.31 81.5884 159.172 82.102 158.895C82.6202 158.613 83.0156 158.226 83.2884 157.735C83.5656 157.245 83.7043 156.683 83.7043 156.051V147.038ZM88.881 161.001V147.038H93.8582C94.9401 147.038 95.8378 147.224 96.5514 147.597C97.2696 147.97 97.806 148.485 98.1605 149.145C98.5151 149.799 98.6923 150.556 98.6923 151.415C98.6923 152.27 98.5128 153.022 98.1537 153.672C97.7992 154.317 97.2628 154.82 96.5446 155.179C95.831 155.538 94.9332 155.717 93.8514 155.717H90.081V153.904H93.6605C94.3423 153.904 94.8969 153.806 95.3242 153.61C95.756 153.415 96.0719 153.131 96.2719 152.758C96.4719 152.385 96.5719 151.938 96.5719 151.415C96.5719 150.888 96.4696 150.431 96.2651 150.045C96.0651 149.658 95.7492 149.363 95.3173 149.158C94.8901 148.949 94.3287 148.845 93.6332 148.845H90.9878V161.001H88.881ZM95.7742 154.701L99.2242 161.001H96.8242L93.4423 154.701H95.7742ZM101.256 161.001V147.038H110.011V148.851H103.363V153.106H109.554V154.913H103.363V159.188H110.092V161.001H101.256ZM112.825 147.038H115.382L119.827 157.892H119.991L124.436 147.038H126.993V161.001H124.988V150.897H124.859L120.741 160.981H119.077L114.959 150.89H114.829V161.001H112.825V147.038ZM130.056 161.001V147.038H138.811V148.851H132.163V153.106H138.354V154.913H132.163V159.188H138.892V161.001H130.056ZM152.895 147.038V161.001H150.959L143.861 150.76H143.732V161.001H141.625V147.038H143.575L150.679 157.292H150.809V147.038H152.895ZM155.28 148.851V147.038H166.087V148.851H161.73V161.001H159.63V148.851H155.28Z" fill="white"/>
<path d="M93 1.60132L184.5 35.8013V115.601C184.5 153.601 154 191.601 93 229.601C32 191.601 1.5 153.601 1.5 115.601V35.8013L93 1.60132Z" fill="#688E9D" stroke="#01313B" stroke-width="3"/>
<path d="M45.0725 110.118H43.0101C42.9513 109.78 42.8428 109.48 42.6848 109.219C42.5267 108.955 42.33 108.73 42.0947 108.547C41.8594 108.363 41.5911 108.225 41.2896 108.133C40.9918 108.037 40.6701 107.99 40.3246 107.99C39.7106 107.99 39.1665 108.144 38.6923 108.453C38.218 108.758 37.8467 109.206 37.5784 109.798C37.31 110.387 37.1758 111.105 37.1758 111.955C37.1758 112.818 37.31 113.546 37.5784 114.138C37.8504 114.726 38.2217 115.171 38.6923 115.473C39.1665 115.771 39.7088 115.919 40.3191 115.919C40.6573 115.919 40.9734 115.875 41.2675 115.787C41.5653 115.695 41.8319 115.561 42.0671 115.385C42.3061 115.208 42.5065 114.991 42.6682 114.734C42.8336 114.476 42.9476 114.182 43.0101 113.851L45.0725 113.863C44.9953 114.399 44.828 114.903 44.5707 115.373C44.317 115.844 43.9843 116.259 43.5726 116.62C43.1608 116.976 42.6792 117.256 42.1278 117.458C41.5763 117.656 40.9642 117.756 40.2915 117.756C39.2989 117.756 38.4129 117.526 37.6335 117.066C36.8541 116.607 36.2402 115.943 35.7917 115.076C35.3432 114.208 35.1189 113.168 35.1189 111.955C35.1189 110.738 35.345 109.697 35.7972 108.833C36.2494 107.966 36.8652 107.302 37.6445 106.843C38.4239 106.383 39.3062 106.153 40.2915 106.153C40.9201 106.153 41.5047 106.242 42.0451 106.418C42.5855 106.594 43.0671 106.854 43.4899 107.196C43.9126 107.534 44.2601 107.949 44.5321 108.442C44.8078 108.931 44.988 109.49 45.0725 110.118ZM59.0375 111.955C59.0375 113.171 58.8096 114.214 58.3537 115.081C57.9015 115.945 57.2839 116.607 56.5009 117.066C55.7215 117.526 54.8373 117.756 53.8484 117.756C52.8595 117.756 51.9735 117.526 51.1904 117.066C50.4111 116.603 49.7934 115.94 49.3376 115.076C48.8854 114.208 48.6593 113.168 48.6593 111.955C48.6593 110.738 48.8854 109.697 49.3376 108.833C49.7934 107.966 50.4111 107.302 51.1904 106.843C51.9735 106.383 52.8595 106.153 53.8484 106.153C54.8373 106.153 55.7215 106.383 56.5009 106.843C57.2839 107.302 57.9015 107.966 58.3537 108.833C58.8096 109.697 59.0375 110.738 59.0375 111.955ZM56.9806 111.955C56.9806 111.098 56.8464 110.376 56.5781 109.787C56.3134 109.195 55.9457 108.749 55.4752 108.447C55.0046 108.142 54.4623 107.99 53.8484 107.99C53.2345 107.99 52.6922 108.142 52.2216 108.447C51.7511 108.749 51.3816 109.195 51.1132 109.787C50.8485 110.376 50.7162 111.098 50.7162 111.955C50.7162 112.811 50.8485 113.535 51.1132 114.127C51.3816 114.715 51.7511 115.162 52.2216 115.467C52.6922 115.769 53.2345 115.919 53.8484 115.919C54.4623 115.919 55.0046 115.769 55.4752 115.467C55.9457 115.162 56.3134 114.715 56.5781 114.127C56.8464 113.535 56.9806 112.811 56.9806 111.955ZM62.9717 106.308H65.4753L68.8281 114.491H68.9604L72.3132 106.308H74.8168V117.601H72.8536V109.842H72.7488L69.6276 117.568H68.1608L65.0396 109.826H64.9348V117.601H62.9717V106.308ZM79.0446 106.308H81.5482L84.9009 114.491H85.0333L88.3861 106.308H90.8896V117.601H88.9265V109.842H88.8217L85.7005 117.568H84.2337L81.1125 109.826H81.0077V117.601H79.0446V106.308ZM102.237 106.308H104.283V113.686C104.283 114.495 104.091 115.206 103.709 115.82C103.33 116.434 102.797 116.914 102.11 117.259C101.422 117.601 100.619 117.772 99.7 117.772C98.7772 117.772 97.9721 117.601 97.2847 117.259C96.5972 116.914 96.0641 116.434 95.6855 115.82C95.3068 115.206 95.1175 114.495 95.1175 113.686V106.308H97.1633V113.515C97.1633 113.986 97.2663 114.405 97.4721 114.772C97.6817 115.14 97.9758 115.429 98.3545 115.638C98.7331 115.844 99.1816 115.947 99.7 115.947C100.218 115.947 100.667 115.844 101.046 115.638C101.428 115.429 101.722 115.14 101.928 114.772C102.134 114.405 102.237 113.986 102.237 113.515V106.308ZM117.787 106.308V117.601H115.967L110.646 109.909H110.552V117.601H108.506V106.308H110.337L115.653 114.006H115.752V106.308H117.787ZM124.062 106.308V117.601H122.016V106.308H124.062ZM127.781 108.023V106.308H136.792V108.023H133.301V117.601H131.272V108.023H127.781ZM139.757 106.308H142.067L144.83 111.304H144.94L147.703 106.308H150.014L145.906 113.388V117.601H143.865V113.388L139.757 106.308Z" fill="#01313D"/>
<path d="M28.7632 136.101H24.9362V124.807H28.8404C29.9617 124.807 30.9249 125.033 31.73 125.485C32.5388 125.934 33.16 126.579 33.5939 127.421C34.0277 128.263 34.2446 129.27 34.2446 130.443C34.2446 131.619 34.0258 132.63 33.5883 133.476C33.1545 134.321 32.5277 134.97 31.7079 135.422C30.8918 135.874 29.9102 136.101 28.7632 136.101ZM26.982 134.33H28.6639C29.4507 134.33 30.1069 134.187 30.6326 133.9C31.1583 133.61 31.5535 133.178 31.8182 132.604C32.0829 132.027 32.2152 131.307 32.2152 130.443C32.2152 129.579 32.0829 128.862 31.8182 128.292C31.5535 127.719 31.162 127.29 30.6436 127.007C30.1289 126.72 29.4893 126.577 28.7246 126.577H26.982V134.33ZM38.1884 136.101V124.807H45.5337V126.522H40.2343V129.588H45.1532V131.303H40.2343V134.386H45.5778V136.101H38.1884ZM51.1318 124.807L54.071 133.696H54.1868L57.1205 124.807H59.3704L55.389 136.101H52.8634L48.8875 124.807H51.1318ZM62.858 136.101V124.807H70.2032V126.522H64.9038V129.588H69.8227V131.303H64.9038V134.386H70.2473V136.101H62.858ZM74.2904 136.101V124.807H76.3363V134.386H81.3103V136.101H74.2904ZM94.7377 130.454C94.7377 131.671 94.5097 132.713 94.0539 133.58C93.6017 134.444 92.9841 135.106 92.201 135.566C91.4216 136.025 90.5375 136.255 89.5486 136.255C88.5596 136.255 87.6737 136.025 86.8906 135.566C86.1112 135.102 85.4936 134.439 85.0377 133.575C84.5856 132.707 84.3595 131.667 84.3595 130.454C84.3595 129.237 84.5856 128.197 85.0377 127.333C85.4936 126.465 86.1112 125.801 86.8906 125.342C87.6737 124.882 88.5596 124.653 89.5486 124.653C90.5375 124.653 91.4216 124.882 92.201 125.342C92.9841 125.801 93.6017 126.465 94.0539 127.333C94.5097 128.197 94.7377 129.237 94.7377 130.454ZM92.6808 130.454C92.6808 129.597 92.5466 128.875 92.2782 128.287C92.0135 127.695 91.6459 127.248 91.1753 126.947C90.7048 126.641 90.1625 126.489 89.5486 126.489C88.9346 126.489 88.3924 126.641 87.9218 126.947C87.4512 127.248 87.0818 127.695 86.8134 128.287C86.5487 128.875 86.4164 129.597 86.4164 130.454C86.4164 131.31 86.5487 132.035 86.8134 132.626C87.0818 133.215 87.4512 133.661 87.9218 133.966C88.3924 134.268 88.9346 134.419 89.5486 134.419C90.1625 134.419 90.7048 134.268 91.1753 133.966C91.6459 133.661 92.0135 133.215 92.2782 132.626C92.5466 132.035 92.6808 131.31 92.6808 130.454ZM98.6719 136.101V124.807H102.907C103.775 124.807 104.502 124.969 105.091 125.292C105.683 125.616 106.129 126.061 106.431 126.627C106.736 127.189 106.888 127.829 106.888 128.546C106.888 129.27 106.736 129.913 106.431 130.476C106.126 131.038 105.675 131.481 105.08 131.805C104.484 132.125 103.751 132.285 102.879 132.285H100.073V130.603H102.604C103.111 130.603 103.526 130.514 103.85 130.338C104.173 130.162 104.412 129.919 104.567 129.61C104.725 129.301 104.804 128.946 104.804 128.546C104.804 128.145 104.725 127.792 104.567 127.487C104.412 127.182 104.172 126.945 103.844 126.776C103.521 126.603 103.104 126.516 102.593 126.516H100.718V136.101H98.6719ZM110.665 124.807H113.169L116.522 132.99H116.654L120.007 124.807H122.51V136.101H120.547V128.342H120.443L117.321 136.067H115.855L112.733 128.325H112.629V136.101H110.665V124.807ZM126.738 136.101V124.807H134.084V126.522H128.784V129.588H133.703V131.303H128.784V134.386H134.128V136.101H126.738ZM147.452 124.807V136.101H145.632L140.31 128.408H140.217V136.101H138.171V124.807H140.002L145.318 132.505H145.417V124.807H147.452ZM151.185 126.522V124.807H160.195V126.522H156.705V136.101H154.675V126.522H151.185Z" fill="#01313D"/>
<path d="M125.922 80.5443L126.025 80.5785C126.089 80.8914 126.062 81.8135 126.06 82.1779L118.793 82.1789L118.697 82.0782C118.632 81.6166 118.67 81.0286 118.686 80.5525C121.098 80.5627 123.51 80.56 125.922 80.5443Z" fill="#01313D"/>
<path d="M136.911 76.5017C139.376 76.5206 141.84 76.5184 144.303 76.4951L144.306 78.124C143.635 78.1706 142.542 78.1313 141.824 78.1314L136.915 78.1367C136.898 77.61 136.911 77.0324 136.911 76.5017Z" fill="#01313D"/>
<path d="M136.918 80.5349C138.113 80.5965 139.577 80.5536 140.788 80.5606C141.803 80.5665 143.307 80.6037 144.293 80.5186L144.305 82.1814L136.915 82.1793C136.898 81.6227 136.908 81.0906 136.918 80.5349Z" fill="#01313D"/>
<path d="M94.9799 50.6013H97.0602C97.7225 50.7382 98.2887 50.795 98.9552 50.9773C101.282 51.6131 103.063 52.8436 104.631 54.6955C105.44 50.1482 108.484 51.0667 112.001 50.9827L112.007 71.1289C112.007 74.7133 112.091 78.6677 112 82.2263C109.664 82.2406 107.028 82.2878 104.71 82.2231C104.681 80.9619 104.672 79.7001 104.683 78.4384C102.877 80.5573 100.777 81.9272 98.0701 82.4332C97.7783 82.4878 97.3826 82.5277 97.1117 82.6013H94.9181C94.6528 82.5247 93.5111 82.3626 93.1189 82.2826C91.3663 81.9301 89.6974 81.2277 88.2067 80.2149C81.0425 75.3141 79.6999 64.0657 84.3288 56.9272C86.172 54.0686 88.9697 52.0054 92.1917 51.1283C93.2519 50.8402 93.972 50.8079 94.9799 50.6013ZM97.6316 76.5039C105.731 75.1827 106.931 62.6112 100.944 58.0356C99.6943 57.0807 97.6676 56.4267 96.1046 56.7015C85.794 58.2026 87.0918 77.4419 97.6316 76.5039Z" fill="#01313D"/>
<path d="M63.6926 50.6013H65.95C66.8327 50.7903 67.5464 50.8261 68.4734 51.0726C71.5065 51.872 74.1328 53.8244 75.8237 56.5369C77.9891 59.9413 78.9257 65.0495 78.3397 69.0386C71.4731 69.0572 64.3538 69.134 57.5025 69.0413C58.0887 71.5576 59.1656 73.9136 61.3426 75.3392C65.4223 78.0106 70.0253 76.0151 72.5007 72.1895C73.5377 72.8666 74.6104 73.6448 75.6296 74.3609C76.2074 74.7666 77.1211 75.3681 77.6423 75.7945C75.6763 79.0066 72.3086 81.3258 68.7254 82.1891C67.9156 82.3843 67.157 82.4438 66.3566 82.6013H63.9729C63.5632 82.4884 62.6151 82.38 62.1059 82.2739C60.1626 81.8824 58.3139 81.0979 56.6669 79.9662C49.4873 75.045 47.9547 64.3551 52.6489 57.1411C54.5805 54.1711 57.5024 52.0326 60.8619 51.1302C61.966 50.8323 62.6565 50.8113 63.6926 50.6013ZM57.5021 64.0933L64.9362 64.1024L71.4017 64.1017C71.2731 62.985 71.1402 62.1506 70.7611 61.0793C69.75 58.2221 67.1124 56.2797 64.1034 56.7035C60.2325 57.2447 58.2888 60.4068 57.5021 64.0933Z" fill="#01313D"/>
<path d="M133.731 50.6013H135.663C136.317 50.7417 136.829 50.8086 137.482 51.0069C139.568 51.6323 141.366 53.0086 142.549 54.8848C142.85 55.3582 143.065 55.7778 143.294 56.2881C144.941 53.4646 146.883 51.8542 150.04 50.9737C150.583 50.8222 151.559 50.719 151.951 50.6013H153.866C154.575 50.748 155.245 50.8467 155.943 51.0657C159.396 52.1483 161.833 55.4244 162.331 59.0499C162.383 59.4247 162.435 59.8047 162.499 60.1788V70.2445C160.244 70.3372 157.554 70.2379 155.235 70.2671C155.154 68.6357 155.15 66.4673 155.216 64.7702C155.351 61.2214 154.678 56.8432 150.352 56.6685C147.228 56.5423 145.14 59.2932 144.579 62.2492C144.214 64.1713 144.293 66.0051 144.294 67.9904L144.301 74.1817C141.936 74.1413 139.273 74.1347 136.914 74.1893C136.823 70.9543 136.956 67.5069 136.907 64.237C136.97 62.247 136.768 59.4119 135.181 57.9824C131.579 54.7382 127.024 57.8112 126.359 62.1831C125.948 64.8841 126.055 66.7235 126.055 69.2358L126.058 78.1294L118.695 78.1277C118.623 76.8313 118.664 75.2799 118.664 73.9577L118.663 66.8261C118.662 61.6932 118.551 56.0732 118.686 50.9744C121.778 51.1219 125.729 50.1686 126.064 54.7607C127.515 52.6754 129.934 51.3067 132.358 50.8413C132.817 50.7533 133.272 50.6952 133.731 50.6013Z" fill="#01313D"/>
<path d="M26.9063 73.1589C30.0473 75.2938 33.4276 77.1617 37.3985 76.4562C38.3141 76.2791 39.2368 75.7777 39.7609 74.972C40.1154 74.4269 40.3039 73.4492 40.1555 72.8128C39.6932 70.9721 36.9932 70.183 35.4739 69.634C31.328 68.1361 26.4167 66.969 25.3759 61.8292C24.3518 56.7714 27.5792 51.9385 32.4335 50.8922C33.4938 50.6636 34.5756 50.678 35.652 50.6659C40.1438 50.6198 42.7572 51.7481 46.631 53.8028C45.7972 55.6273 44.629 57.5185 43.7532 59.3423C41.078 57.5775 37.6725 56.1726 34.444 56.6539C32.8146 56.8968 31.9953 58.5372 32.3473 60.1024C32.7671 61.9691 35.6498 62.5967 37.2137 63.1777C41.295 64.6936 46.0385 66.1073 47.1522 71.0588C47.6596 73.3021 47.2781 75.6612 46.0923 77.6145C44.5805 80.0936 42.0888 81.5007 39.3814 82.1799C38.5705 82.3834 37.4933 82.3995 36.7797 82.6014H34.6667C33.8581 82.3919 32.6023 82.3147 31.5828 82.0516C28.4722 81.2489 26.1904 79.9393 23.5 78.2635V78.186C24.647 76.5599 25.7886 74.8146 26.9063 73.1589Z" fill="#01313D"/>
<path d="M155.231 80.5383C157.625 80.587 160.1 80.5527 162.5 80.5497V82.1699L155.235 82.1798C155.203 81.636 155.22 81.0836 155.231 80.5383Z" fill="#01313D"/>
<path d="M162.501 72.5615V74.1642C160.335 74.257 157.435 74.1755 155.234 74.1835C155.203 73.6286 155.22 73.1105 155.234 72.5569C157.598 72.6099 160.123 72.5674 162.501 72.5615Z" fill="#01313D"/>
<path d="M155.23 76.5118L162.5 76.5105V78.1276L155.237 78.1299C155.214 77.557 155.214 77.0854 155.23 76.5118Z" fill="#01313D"/>
<line x1="75" y1="217.601" x2="75" y2="164.601" stroke="#01313B" stroke-width="3"/>
<line x1="111" y1="217.601" x2="111" y2="163.601" stroke="#01313B" stroke-width="3"/>
<line x1="84" y1="223.601" x2="84" y2="182.601" stroke="#01313B" stroke-width="3"/>
<line x1="102" y1="223.601" x2="102" y2="163.601" stroke="#01313B" stroke-width="3"/>
<line x1="93" y1="228.601" x2="93" y2="204.601" stroke="#01313B" stroke-width="3"/>
<line x1="67" y1="169.601" x2="67" y2="172.601" stroke="#01313B" stroke-width="3"/>
<line x1="121" y1="190.601" x2="121" y2="193.601" stroke="#01313B" stroke-width="3"/>
<line x1="121" y1="197.601" x2="121" y2="200.601" stroke="#01313B" stroke-width="3"/>
<line x1="67" y1="175.601" x2="67" y2="178.601" stroke="#01313B" stroke-width="3"/>
</svg>
