<svg width="186" height="232" viewBox="0 0 186 232" fill="none" xmlns="http://www.w3.org/2000/svg">
<path d="M53.931 140.601V126.638H62.6855V128.451H56.0378V132.706H62.2287V134.513H56.0378V138.788H62.7673V140.601H53.931ZM64.8111 128.451V126.638H75.6179V128.451H71.2611V140.601H69.1611V128.451H64.8111ZM78.006 140.601V126.638H80.1128V132.706H87.0742V126.638H89.1878V140.601H87.0742V134.513H80.1128V140.601H78.006ZM94.3628 126.638V140.601H92.256V126.638H94.3628ZM109.029 131.179H106.901C106.82 130.724 106.667 130.324 106.445 129.979C106.222 129.633 105.949 129.34 105.626 129.099C105.304 128.858 104.942 128.676 104.542 128.554C104.147 128.431 103.726 128.369 103.281 128.369C102.476 128.369 101.756 128.572 101.12 128.976C100.488 129.381 99.9878 129.974 99.6196 130.756C99.256 131.538 99.0742 132.492 99.0742 133.619C99.0742 134.756 99.256 135.715 99.6196 136.497C99.9878 137.279 100.49 137.869 101.126 138.27C101.763 138.67 102.479 138.87 103.274 138.87C103.715 138.87 104.133 138.81 104.529 138.692C104.929 138.57 105.29 138.39 105.613 138.154C105.936 137.917 106.208 137.629 106.431 137.288C106.658 136.942 106.815 136.547 106.901 136.101L109.029 136.108C108.915 136.794 108.695 137.426 108.367 138.004C108.045 138.576 107.629 139.072 107.12 139.49C106.615 139.904 106.038 140.224 105.388 140.451C104.738 140.679 104.029 140.792 103.261 140.792C102.051 140.792 100.974 140.506 100.029 139.933C99.0832 139.356 98.3378 138.531 97.7923 137.458C97.2514 136.385 96.981 135.106 96.981 133.619C96.981 132.129 97.2537 130.849 97.7992 129.781C98.3446 128.708 99.0901 127.885 100.036 127.313C100.981 126.735 102.056 126.447 103.261 126.447C104.001 126.447 104.692 126.554 105.333 126.767C105.979 126.976 106.558 127.285 107.072 127.694C107.586 128.099 108.011 128.594 108.347 129.181C108.683 129.763 108.911 130.429 109.029 131.179ZM112.636 140.601H110.399L115.424 126.638H117.858L122.883 140.601H120.647L116.699 129.174H116.59L112.636 140.601ZM113.011 135.133H120.265V136.906H113.011V135.133ZM124.9 140.601V126.638H127.007V138.788H133.334V140.601H124.9Z" fill="white"/>
<path d="M21.1935 161.001V147.038H26.1707C27.2571 147.038 28.1571 147.235 28.8707 147.631C29.5844 148.026 30.1185 148.567 30.473 149.254C30.8276 149.935 31.0048 150.704 31.0048 151.558C31.0048 152.417 30.8253 153.19 30.4662 153.876C30.1117 154.558 29.5753 155.099 28.8571 155.499C28.1435 155.895 27.2457 156.092 26.1639 156.092H22.7412V154.306H25.973C26.6594 154.306 27.2162 154.188 27.6435 153.951C28.0707 153.71 28.3844 153.383 28.5844 152.97C28.7844 152.556 28.8844 152.085 28.8844 151.558C28.8844 151.031 28.7844 150.563 28.5844 150.154C28.3844 149.745 28.0685 149.424 27.6367 149.192C27.2094 148.96 26.6457 148.845 25.9457 148.845H23.3003V161.001H21.1935ZM33.4747 161.001V147.038H38.452C39.5338 147.038 40.4315 147.224 41.1452 147.597C41.8634 147.97 42.3997 148.485 42.7543 149.145C43.1088 149.799 43.2861 150.556 43.2861 151.415C43.2861 152.27 43.1065 153.022 42.7474 153.672C42.3929 154.317 41.8565 154.82 41.1384 155.179C40.4247 155.538 39.527 155.717 38.4452 155.717H34.6747V153.904H38.2543C38.9361 153.904 39.4906 153.806 39.9179 153.61C40.3497 153.415 40.6656 153.131 40.8656 152.758C41.0656 152.385 41.1656 151.938 41.1656 151.415C41.1656 150.888 41.0634 150.431 40.8588 150.045C40.6588 149.658 40.3429 149.363 39.9111 149.158C39.4838 148.949 38.9224 148.845 38.227 148.845H35.5815V161.001H33.4747ZM40.3679 154.701L43.8179 161.001H41.4179L38.0361 154.701H40.3679ZM57.9793 154.02C57.9793 155.51 57.7065 156.792 57.1611 157.865C56.6156 158.933 55.8679 159.756 54.9179 160.333C53.9724 160.906 52.8974 161.192 51.6929 161.192C50.4838 161.192 49.4043 160.906 48.4543 160.333C47.5088 159.756 46.7634 158.931 46.2179 157.858C45.6724 156.785 45.3997 155.506 45.3997 154.02C45.3997 152.529 45.6724 151.249 46.2179 150.181C46.7634 149.108 47.5088 148.285 48.4543 147.713C49.4043 147.135 50.4838 146.847 51.6929 146.847C52.8974 146.847 53.9724 147.135 54.9179 147.713C55.8679 148.285 56.6156 149.108 57.1611 150.181C57.7065 151.249 57.9793 152.529 57.9793 154.02ZM55.8929 154.02C55.8929 152.883 55.7088 151.926 55.3406 151.149C54.977 150.367 54.477 149.776 53.8406 149.376C53.2088 148.972 52.4929 148.77 51.6929 148.77C50.8884 148.77 50.1702 148.972 49.5384 149.376C48.9065 149.776 48.4065 150.367 48.0384 151.149C47.6747 151.926 47.4929 152.883 47.4929 154.02C47.4929 155.156 47.6747 156.115 48.0384 156.897C48.4065 157.674 48.9065 158.265 49.5384 158.67C50.1702 159.07 50.8884 159.27 51.6929 159.27C52.4929 159.27 53.2088 159.07 53.8406 158.67C54.477 158.265 54.977 157.674 55.3406 156.897C55.7088 156.115 55.8929 155.156 55.8929 154.02ZM72.2037 151.579H70.0764C69.9946 151.124 69.8423 150.724 69.6196 150.379C69.3969 150.033 69.1242 149.74 68.8014 149.499C68.4787 149.258 68.1173 149.076 67.7173 148.954C67.3219 148.831 66.9014 148.77 66.456 148.77C65.6514 148.77 64.931 148.972 64.2946 149.376C63.6628 149.781 63.1628 150.374 62.7946 151.156C62.431 151.938 62.2492 152.892 62.2492 154.02C62.2492 155.156 62.431 156.115 62.7946 156.897C63.1628 157.679 63.6651 158.27 64.3014 158.67C64.9378 159.07 65.6537 159.27 66.4492 159.27C66.8901 159.27 67.3082 159.21 67.7037 159.092C68.1037 158.97 68.4651 158.79 68.7878 158.554C69.1105 158.317 69.3832 158.029 69.606 157.688C69.8332 157.342 69.9901 156.947 70.0764 156.501L72.2037 156.508C72.0901 157.195 71.8696 157.826 71.5423 158.404C71.2196 158.976 70.8037 159.472 70.2946 159.89C69.7901 160.304 69.2128 160.624 68.5628 160.851C67.9128 161.079 67.2037 161.192 66.4355 161.192C65.2264 161.192 64.1492 160.906 63.2037 160.333C62.2582 159.756 61.5128 158.931 60.9673 157.858C60.4264 156.785 60.156 155.506 60.156 154.02C60.156 152.529 60.4287 151.249 60.9742 150.181C61.5196 149.108 62.2651 148.285 63.2105 147.713C64.156 147.135 65.231 146.847 66.4355 146.847C67.1764 146.847 67.8673 146.954 68.5082 147.167C69.1537 147.376 69.7332 147.685 70.2469 148.095C70.7605 148.499 71.1855 148.995 71.5219 149.581C71.8582 150.163 72.0855 150.829 72.2037 151.579ZM83.7043 147.038H85.8179V156.222C85.8179 157.199 85.5884 158.065 85.1293 158.82C84.6702 159.57 84.0247 160.16 83.1929 160.592C82.3611 161.02 81.3861 161.233 80.2679 161.233C79.1543 161.233 78.1815 161.02 77.3497 160.592C76.5179 160.16 75.8724 159.57 75.4134 158.82C74.9543 158.065 74.7247 157.199 74.7247 156.222V147.038H76.8315V156.051C76.8315 156.683 76.9702 157.245 77.2474 157.735C77.5293 158.226 77.927 158.613 78.4406 158.895C78.9543 159.172 79.5634 159.31 80.2679 159.31C80.977 159.31 81.5884 159.172 82.102 158.895C82.6202 158.613 83.0156 158.226 83.2884 157.735C83.5656 157.245 83.7043 156.683 83.7043 156.051V147.038ZM88.881 161.001V147.038H93.8582C94.9401 147.038 95.8378 147.224 96.5514 147.597C97.2696 147.97 97.806 148.485 98.1605 149.145C98.5151 149.799 98.6923 150.556 98.6923 151.415C98.6923 152.27 98.5128 153.022 98.1537 153.672C97.7992 154.317 97.2628 154.82 96.5446 155.179C95.831 155.538 94.9332 155.717 93.8514 155.717H90.081V153.904H93.6605C94.3423 153.904 94.8969 153.806 95.3242 153.61C95.756 153.415 96.0719 153.131 96.2719 152.758C96.4719 152.385 96.5719 151.938 96.5719 151.415C96.5719 150.888 96.4696 150.431 96.2651 150.045C96.0651 149.658 95.7492 149.363 95.3173 149.158C94.8901 148.949 94.3287 148.845 93.6332 148.845H90.9878V161.001H88.881ZM95.7742 154.701L99.2242 161.001H96.8242L93.4423 154.701H95.7742ZM101.256 161.001V147.038H110.011V148.851H103.363V153.106H109.554V154.913H103.363V159.188H110.092V161.001H101.256ZM112.825 147.038H115.382L119.827 157.892H119.991L124.436 147.038H126.993V161.001H124.988V150.897H124.859L120.741 160.981H119.077L114.959 150.89H114.829V161.001H112.825V147.038ZM130.056 161.001V147.038H138.811V148.851H132.163V153.106H138.354V154.913H132.163V159.188H138.892V161.001H130.056ZM152.895 147.038V161.001H150.959L143.861 150.76H143.732V161.001H141.625V147.038H143.575L150.679 157.292H150.809V147.038H152.895ZM155.28 148.851V147.038H166.087V148.851H161.73V161.001H159.63V148.851H155.28Z" fill="white"/>
<path d="M93 1.60132L184.5 35.8013V115.601C184.5 153.601 154 191.601 93 229.601C32 191.601 1.5 153.601 1.5 115.601V35.8013L93 1.60132Z" fill="#B57935" stroke="#01313B" stroke-width="3"/>
<path d="M53.9656 117.601V106.308H61.3108V108.023H56.0114V111.089H60.9303V112.804H56.0114V115.886H61.355V117.601H53.9656ZM64.9018 108.023V106.308H73.9124V108.023H70.4217V117.601H68.3924V108.023H64.9018ZM77.6494 117.601V106.308H79.6953V111.089H84.9285V106.308H86.9799V117.601H84.9285V112.804H79.6953V117.601H77.6494ZM93.2508 106.308V117.601H91.205V106.308H93.2508ZM107.133 110.118H105.071C105.012 109.78 104.903 109.48 104.745 109.219C104.587 108.955 104.391 108.73 104.155 108.547C103.92 108.363 103.652 108.225 103.35 108.133C103.052 108.037 102.731 107.99 102.385 107.99C101.771 107.99 101.227 108.144 100.753 108.453C100.279 108.758 99.9073 109.206 99.639 109.798C99.3706 110.387 99.2364 111.105 99.2364 111.955C99.2364 112.818 99.3706 113.546 99.639 114.138C99.911 114.726 100.282 115.171 100.753 115.473C101.227 115.771 101.769 115.919 102.38 115.919C102.718 115.919 103.034 115.875 103.328 115.787C103.626 115.695 103.892 115.561 104.128 115.385C104.367 115.208 104.567 114.991 104.729 114.734C104.894 114.476 105.008 114.182 105.071 113.851L107.133 113.863C107.056 114.399 106.889 114.903 106.631 115.373C106.378 115.844 106.045 116.259 105.633 116.62C105.221 116.976 104.74 117.256 104.188 117.458C103.637 117.656 103.025 117.756 102.352 117.756C101.359 117.756 100.473 117.526 99.6941 117.066C98.9147 116.607 98.3008 115.943 97.8523 115.076C97.4038 114.208 97.1795 113.168 97.1795 111.955C97.1795 110.738 97.4056 109.697 97.8578 108.833C98.31 107.966 98.9258 107.302 99.7051 106.843C100.485 106.383 101.367 106.153 102.352 106.153C102.981 106.153 103.565 106.242 104.106 106.418C104.646 106.594 105.128 106.854 105.55 107.196C105.973 107.534 106.321 107.949 106.593 108.442C106.868 108.931 107.049 109.49 107.133 110.118ZM112.32 117.601H110.137L114.113 106.308H116.638L120.62 117.601H118.436L115.42 108.624H115.331L112.32 117.601ZM112.392 113.173H118.348V114.817H112.392V113.173ZM124.107 117.601V106.308H126.153V115.886H131.127V117.601H124.107Z" fill="#01313D"/>
<path d="M23.5107 136.101V124.807H27.7458C28.6134 124.807 29.3413 124.969 29.9295 125.292C30.5214 125.616 30.9681 126.061 31.2695 126.627C31.5746 127.189 31.7272 127.829 31.7272 128.546C31.7272 129.27 31.5746 129.913 31.2695 130.476C30.9644 131.038 30.514 131.481 29.9185 131.805C29.3229 132.125 28.5895 132.285 27.7182 132.285H24.9113V130.603H27.4425C27.9498 130.603 28.3652 130.514 28.6887 130.338C29.0123 130.162 29.2512 129.919 29.4056 129.61C29.5637 129.301 29.6427 128.946 29.6427 128.546C29.6427 128.145 29.5637 127.792 29.4056 127.487C29.2512 127.182 29.0104 126.945 28.6832 126.776C28.3597 126.603 27.9425 126.516 27.4314 126.516H25.5565V136.101H23.5107ZM35.5042 136.101V124.807H39.7393C40.607 124.807 41.3349 124.958 41.9231 125.259C42.515 125.561 42.9616 125.983 43.2631 126.527C43.5682 127.068 43.7208 127.698 43.7208 128.419C43.7208 129.143 43.5664 129.772 43.2576 130.305C42.9524 130.834 42.5021 131.244 41.9065 131.535C41.311 131.821 40.5794 131.965 39.7118 131.965H36.6954V130.266H39.4361C39.9434 130.266 40.3588 130.196 40.6823 130.057C41.0058 129.913 41.2448 129.706 41.3992 129.434C41.5573 129.158 41.6363 128.82 41.6363 128.419C41.6363 128.018 41.5573 127.676 41.3992 127.393C41.2411 127.107 41.0003 126.89 40.6768 126.743C40.3533 126.592 39.936 126.516 39.425 126.516H37.5501V136.101H35.5042ZM41.3385 130.983L44.1344 136.101H41.8514L39.1052 130.983H41.3385ZM57.6954 130.454C57.6954 131.671 57.4675 132.713 57.0116 133.58C56.5594 134.444 55.9418 135.106 55.1588 135.566C54.3794 136.025 53.4952 136.255 52.5063 136.255C51.5174 136.255 50.6314 136.025 49.8484 135.566C49.069 135.102 48.4514 134.439 47.9955 133.575C47.5433 132.707 47.3172 131.667 47.3172 130.454C47.3172 129.237 47.5433 128.197 47.9955 127.333C48.4514 126.465 49.069 125.801 49.8484 125.342C50.6314 124.882 51.5174 124.653 52.5063 124.653C53.4952 124.653 54.3794 124.882 55.1588 125.342C55.9418 125.801 56.5594 126.465 57.0116 127.333C57.4675 128.197 57.6954 129.237 57.6954 130.454ZM55.6385 130.454C55.6385 129.597 55.5043 128.875 55.236 128.287C54.9713 127.695 54.6037 127.248 54.1331 126.947C53.6625 126.641 53.1203 126.489 52.5063 126.489C51.8924 126.489 51.3501 126.641 50.8796 126.947C50.409 127.248 50.0395 127.695 49.7712 128.287C49.5065 128.875 49.3741 129.597 49.3741 130.454C49.3741 131.31 49.5065 132.035 49.7712 132.626C50.0395 133.215 50.409 133.661 50.8796 133.966C51.3501 134.268 51.8924 134.419 52.5063 134.419C53.1203 134.419 53.6625 134.268 54.1331 133.966C54.6037 133.661 54.9713 133.215 55.236 132.626C55.5043 132.035 55.6385 131.31 55.6385 130.454ZM71.2965 128.617H69.2341C69.1752 128.279 69.0668 127.98 68.9087 127.719C68.7506 127.454 68.5539 127.23 68.3187 127.046C68.0834 126.862 67.815 126.724 67.5135 126.632C67.2158 126.537 66.8941 126.489 66.5485 126.489C65.9346 126.489 65.3905 126.643 64.9162 126.952C64.442 127.257 64.0707 127.706 63.8023 128.298C63.5339 128.886 63.3998 129.605 63.3998 130.454C63.3998 131.318 63.5339 132.046 63.8023 132.638C64.0744 133.226 64.4457 133.671 64.9162 133.972C65.3905 134.27 65.9327 134.419 66.543 134.419C66.8812 134.419 67.1974 134.375 67.4915 134.286C67.7893 134.194 68.0558 134.06 68.2911 133.884C68.53 133.707 68.7304 133.49 68.8922 133.233C69.0576 132.976 69.1716 132.682 69.2341 132.351L71.2965 132.362C71.2193 132.899 71.052 133.402 70.7946 133.873C70.541 134.343 70.2083 134.759 69.7965 135.119C69.3848 135.476 68.9032 135.755 68.3517 135.957C67.8003 136.156 67.1882 136.255 66.5154 136.255C65.5228 136.255 64.6368 136.025 63.8575 135.566C63.0781 135.106 62.4641 134.443 62.0156 133.575C61.5671 132.707 61.3429 131.667 61.3429 130.454C61.3429 129.237 61.569 128.197 62.0211 127.333C62.4733 126.465 63.0891 125.801 63.8685 125.342C64.6479 124.882 65.5302 124.653 66.5154 124.653C67.1441 124.653 67.7286 124.741 68.269 124.917C68.8094 125.094 69.291 125.353 69.7138 125.695C70.1366 126.033 70.484 126.448 70.756 126.941C71.0318 127.43 71.2119 127.989 71.2965 128.617ZM82.2892 124.807H84.335V132.185C84.335 132.994 84.1439 133.705 83.7615 134.319C83.3829 134.933 82.8498 135.413 82.1623 135.759C81.4749 136.101 80.6716 136.272 79.7525 136.272C78.8298 136.272 78.0246 136.101 77.3372 135.759C76.6497 135.413 76.1166 134.933 75.738 134.319C75.3593 133.705 75.17 132.994 75.17 132.185V124.807H77.2159V132.014C77.2159 132.485 77.3188 132.904 77.5247 133.272C77.7342 133.639 78.0283 133.928 78.407 134.137C78.7856 134.343 79.2342 134.446 79.7525 134.446C80.2709 134.446 80.7194 134.343 81.098 134.137C81.4804 133.928 81.7745 133.639 81.9803 133.272C82.1862 132.904 82.2892 132.485 82.2892 132.014V124.807ZM88.5587 136.101V124.807H92.7938C93.6614 124.807 94.3893 124.958 94.9776 125.259C95.5694 125.561 96.0161 125.983 96.3176 126.527C96.6227 127.068 96.7753 127.698 96.7753 128.419C96.7753 129.143 96.6209 129.772 96.3121 130.305C96.0069 130.834 95.5566 131.244 94.961 131.535C94.3655 131.821 93.6339 131.965 92.7663 131.965H89.7499V130.266H92.4905C92.9979 130.266 93.4133 130.196 93.7368 130.057C94.0603 129.913 94.2993 129.706 94.4537 129.434C94.6118 129.158 94.6908 128.82 94.6908 128.419C94.6908 128.018 94.6118 127.676 94.4537 127.393C94.2956 127.107 94.0548 126.89 93.7313 126.743C93.4078 126.592 92.9905 126.516 92.4795 126.516H90.6046V136.101H88.5587ZM94.393 130.983L97.1889 136.101H94.9059L92.1597 130.983H94.393ZM100.658 136.101V124.807H108.004V126.522H102.704V129.588H107.623V131.303H102.704V134.386H108.048V136.101H100.658ZM112.091 124.807H114.594L117.947 132.99H118.08L121.432 124.807H123.936V136.101H121.973V128.342H121.868L118.747 136.067H117.28L114.159 128.325H114.054V136.101H112.091V124.807ZM128.164 136.101V124.807H135.509V126.522H130.21V129.588H135.129V131.303H130.21V134.386H135.553V136.101H128.164ZM148.877 124.807V136.101H147.057L141.736 128.408H141.642V136.101H139.596V124.807H141.427L146.743 132.505H146.842V124.807H148.877ZM152.61 126.522V124.807H161.621V126.522H158.13V136.101H156.101V126.522H152.61Z" fill="#01313D"/>
<path d="M125.922 80.5443L126.025 80.5785C126.089 80.8914 126.062 81.8135 126.06 82.1779L118.793 82.1789L118.697 82.0782C118.632 81.6166 118.67 81.0286 118.686 80.5525C121.098 80.5627 123.51 80.56 125.922 80.5443Z" fill="#01313D"/>
<path d="M136.911 76.5017C139.376 76.5206 141.84 76.5184 144.303 76.4951L144.306 78.124C143.635 78.1706 142.542 78.1313 141.824 78.1314L136.915 78.1367C136.898 77.61 136.911 77.0324 136.911 76.5017Z" fill="#01313D"/>
<path d="M136.918 80.5349C138.113 80.5965 139.577 80.5536 140.788 80.5606C141.803 80.5665 143.307 80.6037 144.293 80.5186L144.305 82.1814L136.915 82.1793C136.898 81.6227 136.908 81.0906 136.918 80.5349Z" fill="#01313D"/>
<path d="M94.9799 50.6013H97.0602C97.7225 50.7382 98.2887 50.795 98.9552 50.9773C101.282 51.6131 103.063 52.8436 104.631 54.6955C105.44 50.1482 108.484 51.0667 112.001 50.9827L112.007 71.1289C112.007 74.7133 112.091 78.6677 112 82.2263C109.664 82.2406 107.028 82.2878 104.71 82.2231C104.681 80.9619 104.672 79.7001 104.683 78.4384C102.877 80.5573 100.777 81.9272 98.0701 82.4332C97.7783 82.4878 97.3826 82.5277 97.1117 82.6013H94.9181C94.6528 82.5247 93.5111 82.3626 93.1189 82.2826C91.3663 81.9301 89.6974 81.2277 88.2067 80.2149C81.0425 75.3141 79.6999 64.0657 84.3288 56.9272C86.172 54.0686 88.9697 52.0054 92.1917 51.1283C93.2519 50.8402 93.972 50.8079 94.9799 50.6013ZM97.6316 76.5039C105.731 75.1827 106.931 62.6112 100.944 58.0356C99.6943 57.0807 97.6676 56.4267 96.1046 56.7015C85.794 58.2026 87.0918 77.4419 97.6316 76.5039Z" fill="#01313D"/>
<path d="M63.6926 50.6013H65.95C66.8327 50.7903 67.5464 50.8261 68.4734 51.0726C71.5065 51.872 74.1328 53.8244 75.8237 56.5369C77.9891 59.9413 78.9257 65.0495 78.3397 69.0386C71.4731 69.0572 64.3538 69.134 57.5025 69.0413C58.0887 71.5576 59.1656 73.9136 61.3426 75.3392C65.4223 78.0106 70.0253 76.0151 72.5007 72.1895C73.5377 72.8666 74.6104 73.6448 75.6296 74.3609C76.2074 74.7666 77.1211 75.3681 77.6423 75.7945C75.6763 79.0066 72.3086 81.3258 68.7254 82.1891C67.9156 82.3843 67.157 82.4438 66.3566 82.6013H63.9729C63.5632 82.4884 62.6151 82.38 62.1059 82.2739C60.1626 81.8824 58.3139 81.0979 56.6669 79.9662C49.4873 75.045 47.9547 64.3551 52.6489 57.1411C54.5805 54.1711 57.5024 52.0326 60.8619 51.1302C61.966 50.8323 62.6565 50.8113 63.6926 50.6013ZM57.5021 64.0933L64.9362 64.1024L71.4017 64.1017C71.2731 62.985 71.1402 62.1506 70.7611 61.0793C69.75 58.2221 67.1124 56.2797 64.1034 56.7035C60.2325 57.2447 58.2888 60.4068 57.5021 64.0933Z" fill="#01313D"/>
<path d="M133.731 50.6013H135.663C136.317 50.7417 136.829 50.8086 137.482 51.0069C139.568 51.6323 141.366 53.0086 142.549 54.8848C142.85 55.3582 143.065 55.7778 143.294 56.2881C144.941 53.4646 146.883 51.8542 150.04 50.9737C150.583 50.8222 151.559 50.719 151.951 50.6013H153.866C154.575 50.748 155.245 50.8467 155.943 51.0657C159.396 52.1483 161.833 55.4244 162.331 59.0499C162.383 59.4247 162.435 59.8047 162.499 60.1788V70.2445C160.244 70.3372 157.554 70.2379 155.235 70.2671C155.154 68.6357 155.15 66.4673 155.216 64.7702C155.351 61.2214 154.678 56.8432 150.352 56.6685C147.228 56.5423 145.14 59.2932 144.579 62.2492C144.214 64.1713 144.293 66.0051 144.294 67.9904L144.301 74.1817C141.936 74.1413 139.273 74.1347 136.914 74.1893C136.823 70.9543 136.956 67.5069 136.907 64.237C136.97 62.247 136.768 59.4119 135.181 57.9824C131.579 54.7382 127.024 57.8112 126.359 62.1831C125.948 64.8841 126.055 66.7235 126.055 69.2358L126.058 78.1294L118.695 78.1277C118.623 76.8313 118.664 75.2799 118.664 73.9577L118.663 66.8261C118.662 61.6932 118.551 56.0732 118.686 50.9744C121.778 51.1219 125.729 50.1686 126.064 54.7607C127.515 52.6754 129.934 51.3067 132.358 50.8413C132.817 50.7533 133.272 50.6952 133.731 50.6013Z" fill="#01313D"/>
<path d="M26.9063 73.1589C30.0473 75.2938 33.4276 77.1617 37.3985 76.4562C38.3141 76.2791 39.2368 75.7777 39.7609 74.972C40.1154 74.4269 40.3039 73.4492 40.1555 72.8128C39.6932 70.9721 36.9932 70.183 35.4739 69.634C31.328 68.1361 26.4167 66.969 25.3759 61.8292C24.3518 56.7714 27.5792 51.9385 32.4335 50.8922C33.4938 50.6636 34.5756 50.678 35.652 50.6659C40.1438 50.6198 42.7572 51.7481 46.631 53.8028C45.7972 55.6273 44.629 57.5185 43.7532 59.3423C41.078 57.5775 37.6725 56.1726 34.444 56.6539C32.8146 56.8968 31.9953 58.5372 32.3473 60.1024C32.7671 61.9691 35.6498 62.5967 37.2137 63.1777C41.295 64.6936 46.0385 66.1073 47.1522 71.0588C47.6596 73.3021 47.2781 75.6612 46.0923 77.6145C44.5805 80.0936 42.0888 81.5007 39.3814 82.1799C38.5705 82.3834 37.4933 82.3995 36.7797 82.6014H34.6667C33.8581 82.3919 32.6023 82.3147 31.5828 82.0516C28.4722 81.2489 26.1904 79.9393 23.5 78.2635V78.186C24.647 76.5599 25.7886 74.8146 26.9063 73.1589Z" fill="#01313D"/>
<path d="M155.231 80.5383C157.625 80.587 160.1 80.5527 162.5 80.5497V82.1699L155.235 82.1798C155.203 81.636 155.22 81.0836 155.231 80.5383Z" fill="#01313D"/>
<path d="M162.501 72.5615V74.1642C160.335 74.257 157.435 74.1755 155.234 74.1835C155.203 73.6286 155.22 73.1105 155.234 72.5569C157.598 72.6099 160.123 72.5674 162.501 72.5615Z" fill="#01313D"/>
<path d="M155.23 76.5118L162.5 76.5105V78.1276L155.237 78.1299C155.214 77.557 155.214 77.0854 155.23 76.5118Z" fill="#01313D"/>
<line x1="75" y1="217.601" x2="75" y2="164.601" stroke="#01313B" stroke-width="3"/>
<line x1="111" y1="217.601" x2="111" y2="163.601" stroke="#01313B" stroke-width="3"/>
<line x1="84" y1="223.601" x2="84" y2="182.601" stroke="#01313B" stroke-width="3"/>
<line x1="102" y1="223.601" x2="102" y2="163.601" stroke="#01313B" stroke-width="3"/>
<line x1="93" y1="228.601" x2="93" y2="204.601" stroke="#01313B" stroke-width="3"/>
<line x1="67" y1="169.601" x2="67" y2="172.601" stroke="#01313B" stroke-width="3"/>
<line x1="121" y1="190.601" x2="121" y2="193.601" stroke="#01313B" stroke-width="3"/>
<line x1="121" y1="197.601" x2="121" y2="200.601" stroke="#01313B" stroke-width="3"/>
<line x1="67" y1="175.601" x2="67" y2="178.601" stroke="#01313B" stroke-width="3"/>
</svg>
