<svg width="145" height="100" viewBox="0 0 145 100" fill="none" xmlns="http://www.w3.org/2000/svg">
<path d="M95.5296 0.563161C95.5118 0.517433 95.4806 0.478132 95.4401 0.450367C95.3996 0.422601 95.3517 0.407655 95.3026 0.407471H91.181C90.7463 0.408737 90.3297 0.582007 90.0223 0.889433C89.7148 1.19686 89.5416 1.61345 89.5403 2.04822V24.2615C89.5408 24.2925 89.5472 24.3231 89.5592 24.3517L102.623 56.7533C102.642 56.798 102.673 56.8363 102.713 56.8632C102.753 56.8902 102.801 56.9046 102.849 56.9046H107.423C107.794 56.9046 108.149 56.7573 108.411 56.4952C108.674 56.2331 108.821 55.8776 108.821 55.5069V35.3258C108.821 35.154 108.789 34.9837 108.727 34.8234L95.5296 0.563161ZM127.07 0.407471H122.953C122.904 0.407657 122.856 0.422605 122.816 0.45037C122.775 0.478135 122.744 0.517434 122.726 0.563161L109.524 34.8233C109.462 34.9837 109.431 35.154 109.431 35.3259V55.5069C109.431 55.8776 109.578 56.2331 109.84 56.4952C110.102 56.7573 110.458 56.9046 110.828 56.9046H115.402C115.451 56.9048 115.498 56.8905 115.538 56.8635C115.579 56.8365 115.61 56.7981 115.628 56.7533L128.694 24.3517C128.705 24.3231 128.711 24.2924 128.711 24.2615V2.0482C128.71 1.61344 128.537 1.19685 128.229 0.889428C127.922 0.582005 127.505 0.408737 127.07 0.407471ZM143.359 0.407471H131.6C131.166 0.408741 130.749 0.582011 130.442 0.889433C130.134 1.19685 129.961 1.61344 129.96 2.0482V76.5045C129.961 76.9392 130.134 77.3558 130.442 77.6633C130.749 77.9707 131.166 78.144 131.6 78.1452H143.359C143.794 78.144 144.211 77.9707 144.518 77.6633C144.825 77.3558 144.999 76.9392 145 76.5045V2.0482C144.999 1.61344 144.825 1.19686 144.518 0.889434C144.211 0.582012 143.794 0.408741 143.359 0.407471Z" fill="#27AAE1"/>
<path d="M88.3115 1.82649V76.7278C88.3115 77.1038 88.1621 77.4644 87.8962 77.7303C87.6303 77.9962 87.2697 78.1456 86.8937 78.1456H73.9614C73.5854 78.1456 73.2248 77.9962 72.9589 77.7303C72.693 77.4644 72.5436 77.1038 72.5436 76.7278V47.6913C72.5436 47.3153 72.3942 46.9547 72.1283 46.6888C71.8624 46.4229 71.5017 46.2735 71.1257 46.2735H53.0809C52.7049 46.2735 52.3443 46.4229 52.0784 46.6888C51.8125 46.9547 51.6631 47.3153 51.6631 47.6913V76.7278C51.6631 77.1038 51.5137 77.4644 51.2478 77.7303C50.9819 77.9962 50.6213 78.1456 50.2452 78.1456H37.2023C36.8262 78.1456 36.4656 77.9962 36.1997 77.7303C35.9338 77.4644 35.7844 77.1038 35.7844 76.7278V17.1599C35.7844 16.7838 35.9338 16.4232 36.1997 16.1573C36.4656 15.8914 36.8262 15.742 37.2023 15.742H50.2452C50.6213 15.742 50.9819 15.8914 51.2478 16.1573C51.5137 16.4232 51.6631 16.7838 51.6631 17.1599V30.4201C51.6631 30.7962 51.8125 31.1568 52.0784 31.4227C52.3443 31.6886 52.7049 31.838 53.0809 31.838H71.1257C71.5017 31.838 71.8624 31.6886 72.1283 31.4227C72.3942 31.1568 72.5436 30.7962 72.5436 30.4201V1.82649C72.5436 1.6403 72.5802 1.45592 72.6515 1.2839C72.7227 1.11188 72.8272 0.955573 72.9589 0.823912C73.0905 0.692252 73.2468 0.587813 73.4188 0.516559C73.5909 0.445304 73.7752 0.40863 73.9614 0.40863H86.8937C87.2697 0.40863 87.6303 0.558012 87.8962 0.823912C88.1621 1.08981 88.3115 1.45045 88.3115 1.82649Z" fill="white"/>
<path d="M32.2539 15.132H19.2771C18.5052 15.132 17.8794 15.7577 17.8794 16.5297V76.7489C17.8794 77.5208 18.5052 78.1466 19.2771 78.1466H32.2539C33.0258 78.1466 33.6516 77.5208 33.6516 76.7489V16.5297C33.6516 15.7577 33.0258 15.132 32.2539 15.132Z" fill="white"/>
<path d="M51.4202 1.39774V13.1158C51.4202 13.4865 51.2729 13.842 51.0108 14.1041C50.7487 14.3663 50.3931 14.5135 50.0224 14.5135H33.6515V14.5208H17.8793V14.5135H1.39774C1.21419 14.5135 1.03243 14.4774 0.862845 14.4071C0.693263 14.3369 0.539176 14.2339 0.409384 14.1041C0.279591 13.9743 0.176634 13.8203 0.106392 13.6507C0.0361499 13.4811 -2.20384e-06 13.2993 1.00763e-10 13.1158L1.00763e-10 1.39774C-2.20384e-06 1.21419 0.0361499 1.03243 0.106392 0.862845C0.176634 0.693263 0.279591 0.539176 0.409384 0.409384C0.539176 0.279591 0.693263 0.176634 0.862845 0.106392C1.03243 0.0361499 1.21419 -2.20384e-06 1.39774 1.00763e-10L50.0224 1.00763e-10C50.3931 1.00763e-10 50.7487 0.147261 51.0108 0.409388C51.2729 0.671515 51.4202 1.02704 51.4202 1.39774Z" fill="white"/>
<path d="M19.7232 96.88H18.3031L21.4939 88.0131H23.0396L26.2305 96.88H24.8104L22.3036 89.6237H22.2343L19.7232 96.88ZM19.9613 93.4077H24.5679V94.5334H19.9613V93.4077ZM39.7083 96.88H36.8378V88.0131H39.7992C40.668 88.0131 41.4141 88.1906 42.0376 88.5456C42.661 88.8978 43.1387 89.4043 43.4707 90.0653C43.8055 90.7234 43.9729 91.5128 43.9729 92.4336C43.9729 93.3572 43.804 94.1509 43.4663 94.8148C43.1315 95.4787 42.6466 95.9896 42.0116 96.3475C41.3766 96.7025 40.6088 96.88 39.7083 96.88ZM38.1756 95.711H39.6347C40.3101 95.711 40.8715 95.584 41.3189 95.33C41.7663 95.0731 42.1011 94.7022 42.3233 94.2173C42.5456 93.7295 42.6567 93.1349 42.6567 92.4336C42.6567 91.7379 42.5456 91.1477 42.3233 90.6628C42.104 90.1779 41.7764 89.8099 41.3405 89.5587C40.9047 89.3076 40.3635 89.1821 39.717 89.1821H38.1756V95.711ZM55.2979 88.0131L57.7657 95.2348H57.8653L60.3331 88.0131H61.7792L58.5883 96.88H57.0427L53.8518 88.0131H55.2979ZM73.7244 88.0131V96.88H72.3865V88.0131H73.7244ZM89.8356 90.3424C89.7895 89.9325 89.599 89.615 89.2641 89.3899C88.9293 89.1619 88.5079 89.0479 87.9999 89.0479C87.6362 89.0479 87.3216 89.1056 87.0561 89.221C86.7905 89.3336 86.5842 89.4895 86.437 89.6886C86.2926 89.8849 86.2205 90.1086 86.2205 90.3597C86.2205 90.5704 86.2695 90.7523 86.3677 90.9052C86.4687 91.0582 86.6 91.1867 86.7617 91.2906C86.9262 91.3916 87.1023 91.4767 87.2899 91.546C87.4775 91.6124 87.6579 91.6672 87.8311 91.7105L88.697 91.9357C88.9798 92.0049 89.2699 92.0987 89.5672 92.2171C89.8645 92.3354 90.1402 92.4913 90.3942 92.6847C90.6482 92.8781 90.8531 93.1176 91.009 93.4034C91.1677 93.6891 91.2471 94.0312 91.2471 94.4295C91.2471 94.9317 91.1172 95.3777 90.8574 95.7673C90.6005 96.157 90.2268 96.4644 89.7361 96.6895C89.2483 96.9146 88.658 97.0272 87.9653 97.0272C87.3014 97.0272 86.727 96.9219 86.2421 96.7112C85.7572 96.5004 85.3777 96.2017 85.1035 95.8149C84.8293 95.4253 84.6777 94.9635 84.6489 94.4295H85.991C86.017 94.7499 86.1209 95.0169 86.3027 95.2304C86.4875 95.4412 86.7227 95.5985 87.0085 95.7024C87.2971 95.8034 87.6131 95.8539 87.9566 95.8539C88.3347 95.8539 88.671 95.7947 88.9654 95.6764C89.2627 95.5552 89.4965 95.3878 89.6668 95.1742C89.8371 94.9577 89.9222 94.7051 89.9222 94.4165C89.9222 94.1538 89.8472 93.9388 89.6971 93.7714C89.5499 93.604 89.3493 93.4654 89.0953 93.3558C88.8442 93.2461 88.5599 93.1494 88.2424 93.0657L87.1946 92.7799C86.4846 92.5865 85.9217 92.3022 85.5061 91.927C85.0934 91.5518 84.887 91.0553 84.887 90.4376C84.887 89.9268 85.0255 89.4808 85.3026 89.0998C85.5797 88.7188 85.9549 88.423 86.4283 88.2123C86.9017 87.9987 87.4356 87.8919 88.0302 87.8919C88.6306 87.8919 89.1602 87.9972 89.6192 88.2079C90.081 88.4186 90.4447 88.7087 90.7102 89.0782C90.9758 89.4447 91.1143 89.8661 91.1259 90.3424H89.8356ZM109.875 92.4466C109.875 93.3933 109.702 94.2072 109.355 94.8884C109.009 95.5667 108.534 96.0891 107.931 96.4557C107.331 96.8194 106.648 97.0012 105.883 97.0012C105.115 97.0012 104.43 96.8194 103.827 96.4557C103.226 96.0891 102.753 95.5653 102.406 94.8841C102.06 94.2029 101.887 93.3904 101.887 92.4466C101.887 91.4998 102.06 90.6873 102.406 90.009C102.753 89.3278 103.226 88.8054 103.827 88.4417C104.43 88.0752 105.115 87.8919 105.883 87.8919C106.648 87.8919 107.331 88.0752 107.931 88.4417C108.534 88.8054 109.009 89.3278 109.355 90.009C109.702 90.6873 109.875 91.4998 109.875 92.4466ZM108.55 92.4466C108.55 91.725 108.433 91.1174 108.199 90.6238C107.968 90.1274 107.651 89.7521 107.247 89.4981C106.846 89.2412 106.391 89.1128 105.883 89.1128C105.372 89.1128 104.916 89.2412 104.515 89.4981C104.114 89.7521 103.796 90.1274 103.562 90.6238C103.332 91.1174 103.216 91.725 103.216 92.4466C103.216 93.1681 103.332 93.7772 103.562 94.2736C103.796 94.7672 104.114 95.1424 104.515 95.3993C104.916 95.6533 105.372 95.7803 105.883 95.7803C106.391 95.7803 106.846 95.6533 107.247 95.3993C107.651 95.1424 107.968 94.7672 108.199 94.2736C108.433 93.7772 108.55 93.1681 108.55 92.4466ZM120.87 96.88V88.0131H124.03C124.717 88.0131 125.287 88.1314 125.74 88.3681C126.197 88.6048 126.537 88.9324 126.762 89.3509C126.987 89.7666 127.1 90.2471 127.1 90.7927C127.1 91.3353 126.986 91.813 126.758 92.2257C126.533 92.6356 126.192 92.9546 125.736 93.1826C125.283 93.4106 124.713 93.5246 124.026 93.5246H121.632V92.3729H123.905C124.338 92.3729 124.69 92.3109 124.961 92.1868C125.235 92.0627 125.436 91.8823 125.563 91.6456C125.69 91.4089 125.753 91.1246 125.753 90.7927C125.753 90.4578 125.689 90.1678 125.559 89.9224C125.432 89.6771 125.231 89.4895 124.957 89.3596C124.686 89.2268 124.329 89.1604 123.887 89.1604H122.208V96.88H120.87ZM125.247 92.8795L127.438 96.88H125.914L123.766 92.8795H125.247ZM142.891 90.3424C142.845 89.9325 142.654 89.615 142.319 89.3899C141.985 89.1619 141.563 89.0479 141.055 89.0479C140.691 89.0479 140.377 89.1056 140.111 89.221C139.846 89.3336 139.639 89.4895 139.492 89.6886C139.348 89.8849 139.276 90.1086 139.276 90.3597C139.276 90.5704 139.325 90.7523 139.423 90.9052C139.524 91.0582 139.655 91.1867 139.817 91.2906C139.981 91.3916 140.157 91.4767 140.345 91.546C140.533 91.6124 140.713 91.6672 140.886 91.7105L141.752 91.9357C142.035 92.0049 142.325 92.0987 142.622 92.2171C142.92 92.3354 143.195 92.4913 143.449 92.6847C143.703 92.8781 143.908 93.1176 144.064 93.4034C144.223 93.6891 144.302 94.0312 144.302 94.4295C144.302 94.9317 144.172 95.3777 143.913 95.7673C143.656 96.157 143.282 96.4644 142.791 96.6895C142.303 96.9146 141.713 97.0272 141.02 97.0272C140.357 97.0272 139.782 96.9219 139.297 96.7112C138.812 96.5004 138.433 96.2017 138.159 95.8149C137.884 95.4253 137.733 94.9635 137.704 94.4295H139.046C139.072 94.7499 139.176 95.0169 139.358 95.2304C139.543 95.4412 139.778 95.5985 140.064 95.7024C140.352 95.8034 140.668 95.8539 141.012 95.8539C141.39 95.8539 141.726 95.7947 142.021 95.6764C142.318 95.5552 142.552 95.3878 142.722 95.1742C142.892 94.9577 142.977 94.7051 142.977 94.4165C142.977 94.1538 142.902 93.9388 142.752 93.7714C142.605 93.604 142.405 93.4654 142.151 93.3558C141.899 93.2461 141.615 93.1494 141.298 93.0657L140.25 92.7799C139.54 92.5865 138.977 92.3022 138.561 91.927C138.149 91.5518 137.942 91.0553 137.942 90.4376C137.942 89.9268 138.081 89.4808 138.358 89.0998C138.635 88.7188 139.01 88.423 139.484 88.2123C139.957 87.9987 140.491 87.8919 141.085 87.8919C141.686 87.8919 142.215 87.9972 142.674 88.2079C143.136 88.4186 143.5 88.7087 143.765 89.0782C144.031 89.4447 144.17 89.8661 144.181 90.3424H142.891Z" fill="white"/>
</svg>
